<svg width="30" height="28" viewBox="0 0 30 28" fill="none" xmlns="http://www.w3.org/2000/svg">
<path d="M2.69244 27.3337C1.92536 27.3337 1.28487 27.0767 0.770986 26.5628C0.257097 26.0489 0.000152588 25.4085 0.000152588 24.6414V8.35928C0.000152588 7.5922 0.257097 6.95171 0.770986 6.43783C1.28487 5.92394 1.92536 5.66699 2.69244 5.66699H10.0002V3.35928C10.0002 2.5922 10.2571 1.95171 10.771 1.43783C11.2849 0.923937 11.9254 0.666992 12.6924 0.666992H17.3079C18.0749 0.666992 18.7154 0.923937 19.2293 1.43783C19.7432 1.95171 20.0002 2.5922 20.0002 3.35928V5.66699H27.3079C28.0749 5.66699 28.7154 5.92394 29.2293 6.43783C29.7432 6.95171 30.0002 7.5922 30.0002 8.35928V24.6414C30.0002 25.4085 29.7432 26.0489 29.2293 26.5628C28.7154 27.0767 28.0749 27.3337 27.3079 27.3337H2.69244ZM2.69244 25.667H27.3079C27.5643 25.667 27.7993 25.5602 28.013 25.3465C28.2267 25.1328 28.3335 24.8978 28.3335 24.6414V8.35928C28.3335 8.10289 28.2267 7.86785 28.013 7.65416C27.7993 7.44049 27.5643 7.33366 27.3079 7.33366H2.69244C2.43606 7.33366 2.20101 7.44049 1.98732 7.65416C1.77365 7.86785 1.66682 8.10289 1.66682 8.35928V24.6414C1.66682 24.8978 1.77365 25.1328 1.98732 25.3465C2.20101 25.5602 2.43606 25.667 2.69244 25.667ZM11.6668 5.66699H18.3335V3.35928C18.3335 3.10287 18.2267 2.86783 18.013 2.65416C17.7993 2.44049 17.5643 2.33366 17.3079 2.33366H12.6924C12.4361 2.33366 12.201 2.44049 11.9873 2.65416C11.7737 2.86783 11.6668 3.10287 11.6668 3.35928V5.66699Z" fill="white"/>
</svg>
