<svg width="66" height="46" viewBox="0 0 66 46" fill="none" xmlns="http://www.w3.org/2000/svg">
<g clip-path="url(#clip0_1_894)">
<path d="M0 11.3701V34.8101H14.181V22.6768H22.9059V11.3701H0Z" fill="#45DAFF"/>
<path d="M56.6728 36.9343C55.0703 35.3317 53.7984 34.0853 52.8318 33.1696C51.8779 32.2539 51.0004 31.5035 50.2246 30.9057C52.0942 30.5369 53.773 29.9137 55.261 29.0234C56.7491 28.1331 58.0082 27.0521 59.0257 25.7675C60.0559 24.4829 60.8444 23.0458 61.3913 21.456C61.9382 19.8534 62.218 18.1619 62.218 16.3813C62.218 13.0872 61.4803 10.3909 59.9923 8.2924C58.5042 6.19386 56.6219 4.52775 54.3326 3.29407C52.0433 2.06038 49.5123 1.20825 46.727 0.724949C43.9417 0.24165 41.2454 0 38.6381 0H22.8291V11.9299H39.8082C42.2755 11.9299 44.196 12.375 45.5696 13.2653C46.9432 14.1556 47.63 15.491 47.63 17.2716C47.63 19.0522 46.8796 20.1332 45.3661 21.0362C43.8526 21.952 42.0085 22.4098 39.8209 22.4098H22.8418V33.7165H35.9163L46.1292 45.8499H65.1178L56.6855 36.947L56.6728 36.9343Z" fill="#CE23F2"/>
</g>
<defs>
<clipPath id="clip0_1_894">
<rect width="65.1055" height="45.8499" fill="white"/>
</clipPath>
</defs>
</svg>
