<svg width="165" height="46" viewBox="0 0 165 46" fill="none" xmlns="http://www.w3.org/2000/svg">
<g clip-path="url(#clip0_1_486)">
<path d="M0 11.3701V34.8101H14.181V22.6768H22.9059V11.3701H0Z" fill="#45DAFF"/>
<path d="M56.6728 36.9343C55.0703 35.3317 53.7984 34.0853 52.8318 33.1696C51.8779 32.2539 51.0004 31.5035 50.2246 30.9057C52.0942 30.5369 53.773 29.9137 55.261 29.0234C56.7491 28.1331 58.0082 27.0521 59.0257 25.7675C60.0559 24.4829 60.8444 23.0458 61.3913 21.456C61.9382 19.8534 62.218 18.1619 62.218 16.3813C62.218 13.0872 61.4803 10.3909 59.9923 8.2924C58.5042 6.19386 56.6219 4.52775 54.3326 3.29407C52.0433 2.06038 49.5123 1.20825 46.727 0.724949C43.9417 0.24165 41.2454 0 38.6381 0H22.8291V11.9299H39.8082C42.2755 11.9299 44.196 12.375 45.5696 13.2653C46.9432 14.1556 47.63 15.491 47.63 17.2716C47.63 19.0522 46.8796 20.1332 45.3661 21.0362C43.8526 21.952 42.0085 22.4098 39.8209 22.4098H22.8418V33.7165H35.9163L46.1292 45.8499H65.1178L56.6855 36.947L56.6728 36.9343Z" fill="#CE23F2"/>
</g>
<path d="M75.5616 28.7134V15.7848H80.8114C81.4382 15.7848 82.0259 15.8371 82.5744 15.9415C83.1229 16.033 83.6191 16.1766 84.0631 16.3725C84.5202 16.5684 84.912 16.8165 85.2385 17.1169C85.578 17.4172 85.8327 17.7763 86.0024 18.1942C86.1722 18.5991 86.2571 19.0627 86.2571 19.585C86.2571 20.0421 86.1852 20.4535 86.0416 20.8191C85.911 21.1848 85.7021 21.5113 85.4148 21.7986C85.1275 22.0728 84.7618 22.3013 84.3178 22.4842C83.8868 22.6539 83.3841 22.7715 82.8095 22.8368V23.111C83.4755 23.1894 84.0109 23.3461 84.4157 23.5811C84.8206 23.8162 85.134 24.1361 85.356 24.541C85.5911 24.9458 85.7935 25.4486 85.9632 26.0493L86.7272 28.7134H83.6126L83.0249 26.2648C82.9074 25.7424 82.7376 25.3311 82.5156 25.0307C82.2936 24.7303 82.0129 24.5214 81.6733 24.4039C81.3468 24.2863 80.9485 24.2276 80.4784 24.2276H78.3824V28.7134H75.5616ZM78.3824 22.0924H80.2042C80.4262 22.0924 80.6743 22.0859 80.9485 22.0728C81.2228 22.0597 81.497 22.0206 81.7713 21.9553C82.0586 21.89 82.3132 21.7855 82.5352 21.6419C82.7703 21.4982 82.9596 21.2958 83.1033 21.0346C83.26 20.7734 83.3384 20.4404 83.3384 20.0356C83.3384 19.6177 83.2665 19.2781 83.1229 19.017C82.9792 18.7558 82.7964 18.5534 82.5744 18.4097C82.3524 18.2661 82.1173 18.1616 81.8692 18.0963C81.6211 18.031 81.386 17.9918 81.164 17.9788C80.942 17.9657 80.7657 17.9592 80.6351 17.9592H78.3824V22.0924ZM88.6048 28.7134V18.4293H91.4256V28.7134H88.6048ZM90.0152 16.9406C89.4667 16.9406 89.0423 16.823 88.7419 16.588C88.4546 16.3529 88.311 16.0199 88.311 15.5889C88.311 15.1319 88.4546 14.7858 88.7419 14.5507C89.0423 14.3157 89.4667 14.1981 90.0152 14.1981C90.5767 14.1981 91.0012 14.3157 91.2885 14.5507C91.5888 14.7858 91.739 15.1319 91.739 15.5889C91.739 16.0199 91.5888 16.3529 91.2885 16.588C91.0012 16.823 90.5767 16.9406 90.0152 16.9406ZM98.702 28.9876C97.814 28.9876 97.037 28.857 96.371 28.5958C95.705 28.3347 95.1499 27.969 94.7059 27.4989C94.275 27.0287 93.9485 26.4737 93.7265 25.8338C93.5045 25.1809 93.3935 24.4692 93.3935 23.6987C93.3935 22.889 93.5045 22.1512 93.7265 21.4851C93.9485 20.8061 94.2815 20.2184 94.7255 19.7222C95.1695 19.2259 95.718 18.8407 96.371 18.5664C97.0239 18.2922 97.7683 18.1551 98.6041 18.1551C99.244 18.1551 99.8186 18.2399 100.328 18.4097C100.837 18.5664 101.281 18.795 101.66 19.0953C102.039 19.3826 102.346 19.7352 102.581 20.1531C102.829 20.5579 102.992 21.015 103.07 21.5243L100.485 22.3079C100.445 21.89 100.334 21.5374 100.152 21.2501C99.9818 20.9497 99.7533 20.7277 99.466 20.5841C99.1787 20.4404 98.8457 20.3686 98.467 20.3686C98.1535 20.3686 97.8597 20.4339 97.5855 20.5645C97.3243 20.682 97.0892 20.8714 96.8803 21.1325C96.6844 21.3807 96.5277 21.7071 96.4101 22.112C96.2926 22.5168 96.2338 23.0065 96.2338 23.5811C96.2338 24.3516 96.3318 24.9785 96.5277 25.4617C96.7366 25.9448 97.0305 26.304 97.4092 26.539C97.7879 26.761 98.2319 26.872 98.7412 26.872C99.2505 26.872 99.6553 26.7676 99.9557 26.5586C100.269 26.3497 100.498 26.0885 100.641 25.7751C100.798 25.4486 100.889 25.1091 100.916 24.7565L103.403 25.2854C103.351 25.7947 103.22 26.2778 103.012 26.7349C102.803 27.1789 102.502 27.5707 102.11 27.9102C101.732 28.2498 101.255 28.5175 100.68 28.7134C100.119 28.8962 99.4595 28.9876 98.702 28.9876ZM104.98 28.7134V22.347V14.7466H107.801V17.9004C107.801 18.1616 107.787 18.4424 107.761 18.7427C107.748 19.0431 107.722 19.35 107.683 19.6634C107.644 19.9768 107.598 20.2902 107.546 20.6037C107.507 20.9171 107.454 21.224 107.389 21.5243H107.801C107.983 20.8191 108.212 20.2184 108.486 19.7222C108.773 19.2129 109.139 18.8276 109.583 18.5664C110.04 18.2922 110.608 18.1551 111.287 18.1551C111.979 18.1551 112.548 18.2857 112.992 18.5468C113.436 18.795 113.782 19.1214 114.03 19.5263C114.278 19.9311 114.461 20.3751 114.578 20.8583C114.696 21.3284 114.768 21.792 114.794 22.2491C114.833 22.7062 114.852 23.1045 114.852 23.444V28.7134H112.032V23.7574C112.032 23.2742 111.999 22.8368 111.934 22.445C111.868 22.0402 111.764 21.6941 111.62 21.4068C111.477 21.1195 111.281 20.8975 111.033 20.7408C110.798 20.5841 110.504 20.5057 110.151 20.5057C109.629 20.5057 109.198 20.6624 108.858 20.9758C108.519 21.2893 108.258 21.7202 108.075 22.2687C107.905 22.8041 107.814 23.4179 107.801 24.11V28.7134H104.98ZM123.413 28.9876C122.773 28.9876 122.211 28.8636 121.728 28.6154C121.245 28.3543 120.853 27.9821 120.553 27.4989C120.252 27.0026 120.043 26.4084 119.926 25.7163H119.573V28.7134H117.223V23.7574V14.7466H120.043V18.0767C120.043 18.3901 120.024 18.7297 119.985 19.0953C119.946 19.4479 119.887 19.8201 119.808 20.2119C119.743 20.6037 119.671 21.002 119.593 21.4068H120.004C120.174 20.7408 120.403 20.1662 120.69 19.683C120.99 19.1998 121.369 18.8276 121.826 18.5664C122.283 18.3052 122.825 18.1747 123.452 18.1747C124.301 18.1747 125.039 18.3967 125.665 18.8407C126.292 19.2847 126.775 19.9115 127.115 20.7212C127.455 21.5309 127.624 22.4972 127.624 23.6203C127.624 24.7173 127.455 25.6706 127.115 26.4803C126.775 27.2769 126.292 27.8972 125.665 28.3412C125.039 28.7721 124.288 28.9876 123.413 28.9876ZM122.433 26.6762C122.89 26.6762 123.289 26.5521 123.628 26.304C123.968 26.0428 124.229 25.6771 124.412 25.207C124.595 24.7369 124.686 24.1949 124.686 23.5811C124.686 22.9543 124.595 22.4123 124.412 21.9553C124.242 21.4851 123.994 21.1195 123.667 20.8583C123.341 20.5971 122.949 20.4665 122.492 20.4665C122.179 20.4665 121.891 20.5253 121.63 20.6428C121.369 20.7604 121.14 20.9236 120.945 21.1325C120.749 21.3284 120.579 21.5504 120.435 21.7986C120.305 22.0467 120.207 22.3144 120.141 22.6017C120.076 22.8759 120.043 23.1437 120.043 23.4048V23.7574C120.043 24.0709 120.089 24.4039 120.181 24.7565C120.272 25.096 120.416 25.4094 120.612 25.6967C120.82 25.984 121.075 26.2191 121.376 26.4019C121.676 26.5847 122.028 26.6762 122.433 26.6762ZM132.029 28.9876C131.454 28.9876 130.945 28.8766 130.501 28.6546C130.057 28.4326 129.704 28.1127 129.443 27.6948C129.195 27.2638 129.071 26.7414 129.071 26.1277C129.071 25.4094 129.227 24.8413 129.541 24.4235C129.867 24.0056 130.279 23.6856 130.775 23.4636C131.284 23.2416 131.82 23.0849 132.381 22.9935C132.943 22.889 133.465 22.8041 133.948 22.7388C134.392 22.6735 134.751 22.6082 135.026 22.5429C135.3 22.4646 135.496 22.3601 135.613 22.2295C135.744 22.0859 135.809 21.8965 135.809 21.6614C135.809 21.4003 135.75 21.1717 135.633 20.9758C135.515 20.78 135.339 20.6232 135.104 20.5057C134.869 20.3751 134.562 20.3098 134.183 20.3098C133.818 20.3098 133.472 20.3751 133.145 20.5057C132.819 20.6363 132.538 20.8387 132.303 21.113C132.081 21.3741 131.931 21.7071 131.852 22.112L129.345 21.4068C129.489 20.8452 129.704 20.3621 129.991 19.9572C130.292 19.5524 130.651 19.2194 131.069 18.9582C131.487 18.684 131.957 18.4815 132.479 18.351C133.001 18.2204 133.57 18.1551 134.183 18.1551C134.98 18.1551 135.659 18.253 136.221 18.4489C136.782 18.6448 137.233 18.9451 137.572 19.35C137.925 19.7417 138.179 20.2249 138.336 20.7995C138.506 21.3611 138.591 22.0075 138.591 22.7388V24.5018C138.591 24.9458 138.597 25.4094 138.61 25.8926C138.623 26.3627 138.643 26.8329 138.669 27.303C138.708 27.7731 138.747 28.2432 138.787 28.7134H136.299C136.26 28.3608 136.214 27.9755 136.162 27.5576C136.123 27.1267 136.096 26.6892 136.083 26.2452H135.75C135.568 26.7414 135.306 27.205 134.967 27.636C134.627 28.0539 134.209 28.3869 133.713 28.635C133.217 28.8701 132.655 28.9876 132.029 28.9876ZM133.223 26.9308C133.472 26.9308 133.72 26.8916 133.968 26.8133C134.229 26.7219 134.477 26.5913 134.712 26.4215C134.96 26.2517 135.182 26.0363 135.378 25.7751C135.587 25.5139 135.75 25.2201 135.868 24.8936L135.829 23.3461L136.279 23.4244C136.057 23.5942 135.79 23.7313 135.476 23.8358C135.176 23.9272 134.856 23.999 134.516 24.0513C134.19 24.1035 133.863 24.1623 133.537 24.2276C133.21 24.2929 132.917 24.3777 132.655 24.4822C132.394 24.5867 132.185 24.7303 132.029 24.9132C131.872 25.096 131.793 25.3441 131.793 25.6575C131.793 26.0493 131.924 26.3627 132.185 26.5978C132.459 26.8198 132.806 26.9308 133.223 26.9308ZM144.822 32.2198C144.3 32.2198 143.771 32.1741 143.235 32.0826C142.7 31.9912 142.191 31.8476 141.707 31.6517C141.237 31.4558 140.839 31.2011 140.512 30.8877L141.296 28.4391C141.714 28.8831 142.23 29.2096 142.844 29.4186C143.47 29.6275 144.084 29.732 144.685 29.732C145.325 29.732 145.847 29.621 146.252 29.399C146.67 29.19 146.99 28.9027 147.212 28.5371C147.447 28.1584 147.617 27.7274 147.721 27.2442C147.826 26.748 147.884 26.2256 147.897 25.6771L147.995 24.0709H147.584C147.466 24.9458 147.257 25.6575 146.957 26.206C146.67 26.7545 146.298 27.1593 145.841 27.4205C145.397 27.6686 144.868 27.7927 144.254 27.7927C143.588 27.7927 143.033 27.6621 142.589 27.4009C142.158 27.1267 141.825 26.7806 141.59 26.3627C141.355 25.9318 141.178 25.4812 141.061 25.0111C140.956 24.541 140.891 24.097 140.865 23.6791C140.852 23.2612 140.845 22.9347 140.845 22.6996V18.4293H143.666V21.8965C143.666 22.1577 143.673 22.4515 143.686 22.778C143.699 23.0914 143.725 23.4048 143.764 23.7183C143.816 24.0317 143.901 24.3255 144.019 24.5997C144.149 24.8609 144.319 25.0699 144.528 25.2266C144.737 25.3833 145.005 25.4617 145.331 25.4617C145.762 25.4617 146.102 25.3311 146.35 25.0699C146.611 24.8087 146.813 24.4822 146.957 24.0904C147.101 23.6987 147.199 23.2938 147.251 22.8759C147.303 22.4581 147.336 22.0989 147.349 21.7986V18.4293H150.17V25.7947C150.17 26.1603 150.15 26.5717 150.111 27.0287C150.072 27.4728 149.993 27.9364 149.876 28.4195C149.771 28.9027 149.595 29.3663 149.347 29.8103C149.112 30.2674 148.798 30.6788 148.407 31.0444C148.015 31.4101 147.525 31.6974 146.938 31.9063C146.35 32.1153 145.645 32.2198 144.822 32.2198ZM157.332 28.9876C156.301 28.9876 155.393 28.7852 154.61 28.3804C153.826 27.9625 153.212 27.3552 152.768 26.5586C152.324 25.749 152.102 24.7434 152.102 23.542C152.102 22.3405 152.324 21.3415 152.768 20.5449C153.225 19.7483 153.846 19.1541 154.629 18.7623C155.413 18.3575 156.307 18.1551 157.313 18.1551C158.344 18.1551 159.252 18.3575 160.036 18.7623C160.819 19.1671 161.433 19.7744 161.877 20.5841C162.334 21.3807 162.563 22.3797 162.563 23.5811C162.563 24.8087 162.334 25.8208 161.877 26.6174C161.42 27.414 160.793 28.0082 159.996 28.4C159.2 28.7917 158.312 28.9876 157.332 28.9876ZM157.411 26.8916C157.724 26.8916 158.018 26.8394 158.292 26.7349C158.567 26.6304 158.808 26.4607 159.017 26.2256C159.239 25.9775 159.409 25.651 159.526 25.2462C159.657 24.8283 159.722 24.3255 159.722 23.7378C159.722 23.111 159.65 22.5821 159.507 22.1512C159.376 21.7202 159.193 21.3741 158.958 21.113C158.736 20.8387 158.475 20.6428 158.175 20.5253C157.874 20.4078 157.561 20.349 157.234 20.349C156.934 20.349 156.64 20.4012 156.353 20.5057C156.079 20.6102 155.837 20.7865 155.628 21.0346C155.419 21.2697 155.249 21.5896 155.119 21.9945C154.988 22.3993 154.923 22.9021 154.923 23.5028C154.923 24.1296 154.988 24.6585 155.119 25.0895C155.249 25.5204 155.432 25.873 155.667 26.1473C155.902 26.4084 156.17 26.5978 156.471 26.7153C156.771 26.8329 157.084 26.8916 157.411 26.8916Z" fill="white"/>
<defs>
<clipPath id="clip0_1_486">
<rect width="65.1055" height="45.8499" fill="white"/>
</clipPath>
</defs>
</svg>
