<svg width="1419" height="669" viewBox="0 0 1419 669" fill="none" xmlns="http://www.w3.org/2000/svg">
<rect width="1419" height="669" rx="40" fill="#101010"/>
<rect width="1419" height="669" rx="40" fill="#101010"/>
<mask id="mask0_17_126" style="mask-type:alpha" maskUnits="userSpaceOnUse" x="0" y="0" width="1419" height="669">
<rect width="1419" height="669" rx="40" fill="#131516"/>
</mask>
<g mask="url(#mask0_17_126)">
<g opacity="0.08">
<line x1="1027.2" y1="-69" x2="1027.2" y2="1214" stroke="white" stroke-width="0.5"/>
<line x1="-172" y1="180.2" x2="2106" y2="180.2" stroke="white" stroke-width="0.5"/>
<line x1="-172" y1="429.651" x2="2106" y2="429.651" stroke="white" stroke-width="0.5"/>
<line x1="-172" y1="55.4753" x2="2106" y2="55.4753" stroke="white" stroke-width="0.5"/>
<line x1="-172" y1="304.926" x2="2106" y2="304.926" stroke="white" stroke-width="0.5"/>
<line x1="-172" y1="554.376" x2="2106" y2="554.376" stroke="white" stroke-width="0.5"/>
<line x1="307.829" y1="-69" x2="307.829" y2="1214" stroke="white" stroke-width="0.5"/>
<line x1="68.0398" y1="-69" x2="68.0398" y2="1214" stroke="white" stroke-width="0.5"/>
<line x1="1266.99" y1="-69" x2="1266.99" y2="1214" stroke="white" stroke-width="0.5"/>
<line x1="547.618" y1="-69" x2="547.618" y2="1214" stroke="white" stroke-width="0.5"/>
<line x1="787.408" y1="-69" x2="787.408" y2="1214" stroke="white" stroke-width="0.5"/>
<line x1="1147.09" y1="-69" x2="1147.09" y2="1214" stroke="white" stroke-width="0.5"/>
<line x1="427.724" y1="-69" x2="427.724" y2="1214" stroke="white" stroke-width="0.5"/>
<line x1="187.935" y1="-69" x2="187.935" y2="1214" stroke="white" stroke-width="0.5"/>
<line x1="1386.88" y1="-69" x2="1386.88" y2="1214" stroke="white" stroke-width="0.5"/>
<line x1="667.514" y1="-69" x2="667.514" y2="1214" stroke="white" stroke-width="0.5"/>
<line x1="907.302" y1="-69" x2="907.303" y2="1214" stroke="white" stroke-width="0.5"/>
</g>
<path d="M212.725 743H152.524L99.6808 653.702H74.2626V743H24.764V508.885H115.065C154.531 508.885 188.979 540.992 188.979 581.126C188.979 611.227 174.598 634.638 151.521 646.01L212.725 743ZM74.2626 556.711V610.892H110.049C126.102 610.892 138.811 599.187 138.811 583.467C138.811 568.417 126.102 556.711 110.049 556.711H74.2626ZM258.49 499.186C274.209 499.186 287.252 512.23 287.252 527.614C287.252 543.333 274.209 556.377 258.49 556.377C242.77 556.377 229.727 543.333 229.727 527.614C229.727 512.23 242.77 499.186 258.49 499.186ZM235.078 578.785H282.236V743H235.078V578.785ZM394.012 746.344C345.517 746.344 308.728 709.889 308.728 661.06C308.728 612.23 345.517 575.441 394.012 575.441C435.15 575.441 469.932 603.534 474.28 641.327H426.454C423.109 629.287 409.731 620.591 394.012 620.591C371.604 620.591 354.882 637.648 354.882 661.06C354.882 683.802 371.604 701.194 394.012 701.194C409.731 701.194 423.444 691.829 426.788 679.12H474.615C470.936 718.251 435.818 746.344 394.012 746.344ZM590.619 575.441C632.76 575.441 658.178 603.534 658.178 650.023V743H611.021V656.043C611.021 634.638 597.977 620.591 578.579 620.591C558.846 620.591 546.137 634.638 546.137 656.043V743H498.98V508.885H546.137V600.19C556.505 584.471 571.89 575.441 590.619 575.441ZM790.351 575.441C832.826 575.441 866.605 613.568 866.605 660.725C866.605 707.883 832.826 746.344 790.351 746.344C767.608 746.344 749.882 736.98 738.511 719.923V743H691.354V508.885H738.511V601.862C749.882 584.805 767.608 575.441 790.351 575.441ZM779.649 701.194C802.391 701.194 820.451 683.468 820.451 660.725C820.451 638.317 802.391 620.257 779.649 620.257C756.571 620.257 738.511 637.983 738.511 660.725C738.511 683.802 756.571 701.194 779.649 701.194ZM1012.32 578.785H1059.48V743H1012.32V719.589C1000.95 736.645 983.221 746.344 960.144 746.344C917.669 746.344 883.89 707.883 883.89 660.725C883.89 613.568 917.669 575.441 960.144 575.441C983.221 575.441 1000.95 585.14 1012.32 602.197V578.785ZM971.181 701.194C994.258 701.194 1012.32 683.802 1012.32 660.725C1012.32 637.983 994.258 620.257 971.181 620.257C948.439 620.257 930.044 638.317 930.044 660.725C930.044 683.468 948.439 701.194 971.181 701.194ZM1202.13 578.785H1252.97L1161.66 797.515H1111.16L1141.6 729.622L1078.39 578.785H1129.22L1165.68 674.772L1202.13 578.785ZM1340.86 575.441C1389.02 575.441 1426.14 612.23 1426.14 661.06C1426.14 709.889 1389.02 746.344 1340.86 746.344C1292.36 746.344 1255.57 709.889 1255.57 661.06C1255.57 612.23 1292.36 575.441 1340.86 575.441ZM1340.86 620.591C1318.45 620.591 1301.73 637.648 1301.73 661.06C1301.73 683.802 1318.45 701.194 1340.86 701.194C1362.93 701.194 1379.99 683.802 1379.99 661.06C1379.99 637.648 1362.93 620.591 1340.86 620.591Z" fill="#121212"/>
</g>
</svg>
