<svg width="31" height="24" viewBox="0 0 31 24" fill="none" xmlns="http://www.w3.org/2000/svg">
<path d="M0 23.6665V21.1665H3.33333V3.02548C3.33333 2.28509 3.59696 1.65129 4.12421 1.12407C4.65143 0.596817 5.28524 0.333191 6.02562 0.333191H28.3333V1.99986H6.02562C5.72649 1.99986 5.48076 2.09601 5.28846 2.28831C5.09615 2.48062 5 2.72634 5 3.02548V21.1665H14.1346V23.6665H0ZM20.0962 23.6665C19.7147 23.6665 19.395 23.5375 19.137 23.2795C18.879 23.0215 18.75 22.7018 18.75 22.3204V7.32036C18.75 6.93894 18.879 6.61923 19.137 6.36123C19.395 6.10323 19.7147 5.97423 20.0962 5.97423H28.6859C29.0673 5.97423 29.387 6.10323 29.645 6.36123C29.903 6.61923 30.032 6.93894 30.032 7.32036V22.3204C30.032 22.7018 29.903 23.0215 29.645 23.2795C29.387 23.5375 29.0673 23.6665 28.6859 23.6665H20.0962ZM20.4167 21.1665H28.3654V7.6409H20.4167V21.1665Z" fill="white"/>
</svg>
