<svg width="117" height="36" viewBox="0 0 117 36" fill="none" xmlns="http://www.w3.org/2000/svg">
<g clip-path="url(#clip0_1_522)">
<path d="M32.5477 10.8794H37.9821C41.4467 10.8794 44.3088 12.884 44.3088 17.461V18.4228C44.3088 23.0345 41.6321 25.1086 38.0864 25.1086H32.5477V10.8794ZM35.5836 13.4634V22.5131H37.9126C39.8824 22.5131 41.2034 21.2269 41.2034 18.3648V17.6117C41.2034 14.7496 39.8129 13.4634 37.8083 13.4634H35.5836ZM45.9194 13.6025H48.3527L48.7467 16.2791C49.2102 14.4599 50.3921 13.4866 52.5357 13.4866H53.2889V16.5572H52.0375C49.5694 16.5572 48.9669 17.4147 48.9669 19.848V25.1434H45.9658V13.6025H45.9194ZM53.8915 19.6047V19.2802C53.8915 15.4217 56.3596 13.3128 59.7199 13.3128C63.1497 13.3128 65.5483 15.4217 65.5483 19.2802V19.6047C65.5483 23.3937 63.2192 25.4331 59.7199 25.4331C56.0003 25.3983 53.8915 23.4053 53.8915 19.6047ZM62.4776 19.5699V19.2802C62.4776 17.1366 61.4 15.8504 59.6851 15.8504C58.0049 15.8504 56.8926 17.0323 56.8926 19.2802V19.5699C56.8926 21.644 57.9702 22.8259 59.6851 22.8259C61.4 22.7912 62.4776 21.644 62.4776 19.5699ZM67.1241 13.6025H69.627L69.9167 15.7809C70.5192 14.3209 71.8054 13.3128 73.7057 13.3128C76.6373 13.3128 78.5724 15.4217 78.5724 19.3266V19.651C78.5724 23.4401 76.4287 25.4447 73.7057 25.4447C71.8865 25.4447 70.6351 24.622 70.021 23.301V29.1294H67.0894L67.1241 13.6025ZM75.5249 19.5699V19.315C75.5249 17.0207 74.343 15.8852 72.7671 15.8852C71.087 15.8852 69.9746 17.1713 69.9746 19.315V19.5351C69.9746 21.5745 71.0522 22.8607 72.7324 22.8607C74.4589 22.8259 75.5249 21.7251 75.5249 19.5699ZM83.0103 23.0113L82.7554 25.1202H80.183V9.7439H83.1146V15.6418C83.7635 14.1355 85.0497 13.3128 86.8689 13.3128C89.6266 13.3475 91.666 15.2479 91.666 19.0717V19.4309C91.666 23.2547 89.7309 25.4447 86.7993 25.4447C84.8643 25.3983 83.6128 24.5061 83.0103 23.0113ZM88.5838 19.4309V19.1412C88.5838 17.0323 87.4366 15.8504 85.826 15.8504C84.1806 15.8504 83.0335 17.1713 83.0335 19.1759V19.4309C83.0335 21.5745 84.1459 22.8259 85.7913 22.8259C87.5525 22.8259 88.5838 21.7251 88.5838 19.4309ZM92.9522 19.6047V19.2802C92.9522 15.4217 95.4203 13.3128 98.7806 13.3128C102.21 13.3128 104.609 15.4217 104.609 19.2802V19.6047C104.609 23.3937 102.245 25.4331 98.7806 25.4331C95.0611 25.3983 92.9522 23.4053 92.9522 19.6047ZM101.562 19.5699V19.2802C101.562 17.1366 100.484 15.8504 98.769 15.8504C97.0889 15.8504 95.9765 17.0323 95.9765 19.2802V19.5699C95.9765 21.644 97.0541 22.8259 98.769 22.8259C100.496 22.7912 101.562 21.644 101.562 19.5699ZM108.537 19.1412L104.493 13.6025H107.958L110.287 17.0671L112.651 13.6025H116.08L111.979 19.1064L116.301 25.1202H112.905L110.264 21.2964L107.691 25.1202H104.146L108.537 19.1412Z" fill="white"/>
<path d="M13.869 10.8796L7.14836 15.1669L13.869 19.4542L7.14836 23.7415L0.427734 19.431L7.14836 15.1437L0.427734 10.8796L7.14836 6.59229L13.869 10.8796ZM7.1136 25.1203L13.8342 20.8331L20.5548 25.1203L13.8342 29.4076L7.1136 25.1203ZM13.869 19.431L20.5896 15.1437L13.869 10.8796L20.5548 6.59229L27.2755 10.8796L20.5548 15.1669L27.2755 19.4542L20.5548 23.7415L13.869 19.431Z" fill="#0061FF"/>
</g>
<defs>
<clipPath id="clip0_1_522">
<rect width="116.216" height="34.223" fill="white" transform="translate(0.427734 0.888428)"/>
</clipPath>
</defs>
</svg>
