<svg width="79" height="24" viewBox="0 0 79 24" fill="none" xmlns="http://www.w3.org/2000/svg">
<path fill-rule="evenodd" clip-rule="evenodd" d="M48.8847 18.8442C44.3476 22.1884 37.7713 23.9727 32.1093 23.9727C24.1702 23.9727 17.023 21.0363 11.6159 16.1526C11.1911 15.7685 11.5717 15.2451 12.0815 15.5442C17.9169 18.9394 25.132 20.9819 32.5851 20.9819C37.6116 20.9819 43.1411 19.942 48.2253 17.7839C48.9934 17.4576 49.6357 18.2869 48.8847 18.8442Z" fill="#FF9900"/>
<path fill-rule="evenodd" clip-rule="evenodd" d="M50.7709 16.6862C50.1932 15.9453 46.9373 16.3361 45.476 16.5094C45.0308 16.5638 44.9628 16.1764 45.3638 15.8977C47.9569 14.0727 52.2119 14.5994 52.7081 15.2112C53.2043 15.8263 52.579 20.0915 50.1422 22.1273C49.7683 22.4399 49.4115 22.2734 49.578 21.8588C50.1252 20.4926 51.3521 17.4304 50.7709 16.6862Z" fill="#FF9900"/>
<path fill-rule="evenodd" clip-rule="evenodd" d="M45.5779 3.01366V1.2396C45.5779 0.971115 45.7819 0.790991 46.0266 0.790991H53.969C54.2239 0.790991 54.4278 0.974514 54.4278 1.2396V2.75876C54.4244 3.01366 54.2103 3.34672 53.8297 3.8735L49.714 9.74963C51.2434 9.71225 52.8577 9.93995 54.2443 10.7216C54.557 10.8983 54.6419 11.1566 54.6657 11.4115V13.3045C54.6657 13.5628 54.3802 13.8653 54.0812 13.709C51.6376 12.4277 48.392 12.2884 45.6901 13.7226C45.4148 13.8721 45.1259 13.573 45.1259 13.3147V11.5169C45.1259 11.228 45.1293 10.7352 45.4182 10.2968L50.1864 3.45887H46.0368C45.7819 3.45887 45.5779 3.27875 45.5779 3.01366Z" fill="white"/>
<path fill-rule="evenodd" clip-rule="evenodd" d="M16.6051 14.0828H14.1887C13.9576 14.0658 13.7741 13.8925 13.7571 13.6716V1.27022C13.7571 1.02212 13.9644 0.825002 14.2227 0.825002H16.4759C16.7104 0.835191 16.8974 1.01532 16.9144 1.23963V2.86075H16.9585C17.5465 1.294 18.651 0.563311 20.1396 0.563311C21.652 0.563311 22.5968 1.294 23.2765 2.86075C23.861 1.294 25.1899 0.563311 26.6139 0.563311C27.6267 0.563311 28.7346 0.981335 29.4109 1.91934C30.1756 2.9627 30.0193 4.47846 30.0193 5.80731L30.0159 13.6342C30.0159 13.8823 29.8085 14.0828 29.5503 14.0828H27.1373C26.896 14.0658 26.7023 13.8721 26.7023 13.6342V7.06138C26.7023 6.538 26.7498 5.23295 26.6343 4.73676C26.4542 3.90411 25.9138 3.66961 25.2137 3.66961C24.6291 3.66961 24.0174 4.06044 23.7693 4.68578C23.5212 5.31112 23.545 6.35787 23.545 7.06138V13.6342C23.545 13.8823 23.3377 14.0828 23.0794 14.0828H20.6664C20.4217 14.0658 20.2314 13.8721 20.2314 13.6342L20.228 7.06138C20.228 5.67816 20.4557 3.64242 18.7394 3.64242C17.0027 3.64242 17.0707 5.62718 17.0707 7.06138V13.6342C17.0707 13.8823 16.8634 14.0828 16.6051 14.0828Z" fill="white"/>
<path fill-rule="evenodd" clip-rule="evenodd" d="M61.2657 0.563311C64.8512 0.563311 66.7917 3.64242 66.7917 7.55757C66.7917 11.3402 64.6472 14.3411 61.2657 14.3411C57.7447 14.3411 55.8279 11.262 55.8279 7.42503C55.8279 3.56425 57.7685 0.563311 61.2657 0.563311ZM61.286 3.09525C59.5052 3.09525 59.393 5.52183 59.393 7.03419C59.393 8.54995 59.3693 11.7854 61.2657 11.7854C63.1383 11.7854 63.2266 9.17529 63.2266 7.58476C63.2266 6.538 63.1825 5.28733 62.8664 4.29494C62.5945 3.43171 62.0541 3.09525 61.286 3.09525Z" fill="white"/>
<path fill-rule="evenodd" clip-rule="evenodd" d="M71.4411 14.0828H69.0349C68.7936 14.0658 68.5999 13.8721 68.5999 13.6342L68.5965 1.22943C68.6169 1.00173 68.8174 0.825002 69.0621 0.825002H71.3017C71.5125 0.835191 71.6858 0.977938 71.7334 1.17166V3.06806H71.7775C72.4539 1.37217 73.4021 0.563311 75.0707 0.563311C76.1549 0.563311 77.2119 0.954147 77.8916 2.0247C78.5237 3.01708 78.5237 4.68578 78.5237 5.88547V13.692C78.4965 13.9095 78.296 14.0828 78.0581 14.0828H75.6349C75.414 14.0658 75.2305 13.9027 75.2067 13.692V6.95603C75.2067 5.6 75.363 3.61523 73.6943 3.61523C73.1064 3.61523 72.566 4.00946 72.2975 4.60761C71.9577 5.36549 71.9135 6.11998 71.9135 6.95603V13.6342C71.9101 13.8823 71.6994 14.0828 71.4411 14.0828Z" fill="white"/>
<path fill-rule="evenodd" clip-rule="evenodd" d="M39.2464 8.1591C39.2464 9.1005 39.2702 9.88557 38.7944 10.7216C38.4104 11.4013 37.7986 11.8194 37.1223 11.8194C36.1945 11.8194 35.6507 11.1125 35.6507 10.0691C35.6507 8.00956 37.4962 7.63572 39.2464 7.63572V8.1591ZM41.6832 14.0488C41.5235 14.1916 41.2924 14.2018 41.1122 14.1066C40.3102 13.4405 40.164 13.1312 39.7256 12.4957C38.4002 13.8483 37.4588 14.2527 35.7425 14.2527C33.7067 14.2527 32.1264 12.9987 32.1264 10.4871C32.1264 8.52614 33.1868 7.19051 34.7025 6.53798C36.0144 5.96022 37.8462 5.85826 39.2464 5.69853V5.38586C39.2464 4.8115 39.2906 4.13179 38.9507 3.6356C38.6585 3.19038 38.0943 3.00686 37.5947 3.00686C36.6737 3.00686 35.8546 3.47926 35.6541 4.45805C35.6133 4.67556 35.4536 4.88967 35.2327 4.89987L32.8911 4.64837C32.694 4.60419 32.4731 4.44446 32.5308 4.14199C33.0678 1.30078 35.6371 0.444336 37.9346 0.444336C39.1105 0.444336 40.6466 0.757005 41.5744 1.64743C42.7503 2.74517 42.6382 4.20996 42.6382 5.80389V9.56951C42.6382 10.7012 43.1072 11.1974 43.549 11.8092C43.7019 12.0267 43.7359 12.2884 43.5388 12.4515C43.046 12.8627 42.1692 13.6274 41.6866 14.0556L41.6832 14.0488Z" fill="white"/>
<path fill-rule="evenodd" clip-rule="evenodd" d="M7.56825 8.15909C7.56825 9.1005 7.59204 9.88557 7.11624 10.7216C6.7322 11.4013 6.12385 11.8194 5.44414 11.8194C4.51633 11.8194 3.97596 11.1125 3.97596 10.0691C3.97596 8.00956 5.82138 7.63571 7.56825 7.63571V8.15909ZM10.005 14.0488C9.84529 14.1916 9.61419 14.2018 9.43406 14.1066C8.632 13.4405 8.48926 13.1312 8.04745 12.4957C6.722 13.8483 5.784 14.2527 4.06432 14.2527C2.03197 14.2527 0.448242 12.9987 0.448242 10.4871C0.448242 8.52614 1.51199 7.1905 3.02436 6.53798C4.33621 5.96022 6.16804 5.85826 7.56825 5.69853V5.38586C7.56825 4.8115 7.61243 4.13178 7.27597 3.6356C6.98029 3.19038 6.41613 3.00686 5.91994 3.00686C4.99893 3.00686 4.17647 3.47926 3.97596 4.45805C3.93517 4.67556 3.77544 4.88967 3.55793 4.89986L1.21292 4.64837C1.0158 4.60419 0.798294 4.44445 0.852672 4.14198C1.39304 1.30078 3.95896 0.444336 6.2564 0.444336C7.4323 0.444336 8.96846 0.757005 9.89627 1.64743C11.0722 2.74517 10.96 4.20995 10.96 5.80388V9.5695C10.96 10.7012 11.429 11.1974 11.8708 11.8092C12.0272 12.0267 12.0612 12.2884 11.864 12.4515C11.3712 12.8627 10.4944 13.6274 10.0118 14.0556L10.005 14.0488Z" fill="white"/>
</svg>
