<svg width="100" height="31" viewBox="0 0 100 31" fill="none" xmlns="http://www.w3.org/2000/svg">
<path d="M70.5015 6.64346H65.2146C65.0945 6.64346 64.9743 6.76363 64.9743 6.88379V9.94773C64.9743 10.0679 65.0945 10.1881 65.2146 10.1881H70.5015C70.6216 10.1881 70.7418 10.0679 70.7418 9.94773V6.88379C70.8018 6.76363 70.6817 6.64346 70.5015 6.64346ZM70.4414 11.2094H60.2282C60.108 11.2094 59.9278 11.3295 59.8677 11.4497L58.546 16.4361L58.4859 16.6764L56.9239 11.3295C56.8638 11.2094 56.7437 11.0892 56.5634 11.0892H52.5983C52.4782 11.0892 52.2979 11.2094 52.2379 11.3295L50.7359 16.316L50.6758 16.5563L50.6158 16.4361L50.015 13.9729L49.3541 11.5098C49.294 11.3896 49.1739 11.2695 48.9937 11.2695H41.0033V6.94385C41.0033 6.8237 40.8231 6.64347 40.6429 6.70354L35.5963 8.26557C35.4161 8.32564 35.356 8.38572 35.356 8.50587V11.2094H34.0343C33.9142 11.2094 33.794 11.3295 33.794 11.4497V15.2947C33.794 15.4148 33.9142 15.535 34.0343 15.535H35.356V20.221C35.356 23.5253 37.1584 25.0873 40.4626 25.0873C41.8444 25.0873 43.1661 24.7869 44.0673 24.3063V20.3412C44.0673 20.1609 43.8871 20.1009 43.7669 20.1009C43.2262 20.3412 42.8057 20.4013 42.325 20.4013C41.4239 20.4013 40.9432 20.0408 40.9432 19.0195V15.595H43.827C43.9471 15.595 44.0673 15.4749 44.0673 15.3547V12.1105L47.8522 24.6668C47.9123 24.7869 48.0324 24.9071 48.2126 24.9071H52.4181C52.5382 24.9071 52.7185 24.7869 52.7786 24.6668L54.5809 19.0795L55.482 21.9633L56.3231 24.6067C56.3832 24.7269 56.5034 24.847 56.6836 24.847H60.889C61.0092 24.847 61.1894 24.7269 61.2495 24.6067L65.0945 11.9904V24.6067C65.0945 24.7269 65.2146 24.847 65.3348 24.847H70.4414C70.5615 24.847 70.6817 24.7269 70.6817 24.6067V11.5098C70.6817 11.3295 70.5615 11.2094 70.4414 11.2094ZM77.1701 6.64346H72.0635C71.9433 6.64346 71.8232 6.76363 71.8232 6.88379V24.6067C71.8232 24.7269 71.9433 24.847 72.0635 24.847H77.1701C77.2902 24.847 77.4104 24.7269 77.4104 24.6067V6.88379C77.4104 6.76363 77.2902 6.64346 77.1701 6.64346ZM83.9589 6.64346H78.672C78.5519 6.64346 78.4317 6.76363 78.4317 6.88379V9.94773C78.4317 10.0679 78.5519 10.1881 78.672 10.1881H83.9589C84.079 10.1881 84.1992 10.0679 84.1992 9.94773V6.88379C84.2592 6.76363 84.1391 6.64346 83.9589 6.64346ZM83.8988 11.2094H78.7922C78.672 11.2094 78.5519 11.3295 78.5519 11.4497V24.6067C78.5519 24.7269 78.672 24.847 78.7922 24.847H83.8988C84.0189 24.847 84.1391 24.7269 84.1391 24.6067V11.5098C84.1391 11.3295 84.0189 11.2094 83.8988 11.2094ZM92.3697 10.909C87.8639 10.909 84.6798 14.2132 84.6798 18.0582V18.1183C84.6798 21.9633 87.8639 25.2075 92.3097 25.2075C96.8155 25.2075 99.9996 21.9032 99.9996 18.0582V17.9982C99.9996 14.1532 96.8155 10.909 92.3697 10.909ZM94.5325 18.0582C94.5325 19.3799 93.6314 20.4013 92.3697 20.4013C91.1081 20.4013 90.1469 19.3199 90.1469 17.9982V17.9381C90.1469 16.6164 91.048 15.595 92.3097 15.595C93.5713 15.595 94.5325 16.6764 94.5325 18.0582ZM15.1699 0.755859C6.87921 0.755859 0.150513 7.48456 0.150513 15.7753C0.150513 24.066 6.87921 30.7947 15.1699 30.7947C23.4606 30.7947 30.1893 24.066 30.1893 15.7753C30.1893 7.48456 23.4606 0.755859 15.1699 0.755859ZM15.1699 26.8296C9.04201 26.8296 4.11564 21.9032 4.11564 15.7753C4.11564 9.64735 9.04201 4.72099 15.1699 4.72099C21.2979 4.72099 26.2242 9.64735 26.2242 15.7753C26.2242 21.9032 21.2979 26.8296 15.1699 26.8296Z" fill="white"/>
<path d="M18.8937 15.1746C20.6191 15.1746 22.0177 13.7759 22.0177 12.0505C22.0177 10.3252 20.6191 8.92651 18.8937 8.92651C17.1683 8.92651 15.7697 10.3252 15.7697 12.0505C15.7697 13.7759 17.1683 15.1746 18.8937 15.1746Z" fill="white"/>
<path d="M18.8937 22.6241C20.6191 22.6241 22.0177 21.2254 22.0177 19.5C22.0177 17.7747 20.6191 16.376 18.8937 16.376C17.1683 16.376 15.7697 17.7747 15.7697 19.5C15.7697 21.2254 17.1683 22.6241 18.8937 22.6241Z" fill="white"/>
<path d="M11.4446 22.6241C13.17 22.6241 14.5687 21.2254 14.5687 19.5C14.5687 17.7747 13.17 16.376 11.4446 16.376C9.71929 16.376 8.32062 17.7747 8.32062 19.5C8.32062 21.2254 9.71929 22.6241 11.4446 22.6241Z" fill="white"/>
<path d="M11.4446 15.1746C13.17 15.1746 14.5687 13.7759 14.5687 12.0505C14.5687 10.3252 13.17 8.92651 11.4446 8.92651C9.71929 8.92651 8.32062 10.3252 8.32062 12.0505C8.32062 13.7759 9.71929 15.1746 11.4446 15.1746Z" fill="white"/>
</svg>
