<svg width="110" height="36" viewBox="0 0 110 36" fill="none" xmlns="http://www.w3.org/2000/svg">
<g clip-path="url(#clip0_1_520)">
<path d="M44.1068 19.1853L42.1981 14.1898C42.1202 13.9855 41.8225 13.9855 41.7445 14.1898L39.8361 19.1856C39.8225 19.2211 39.818 19.2593 39.8229 19.2969C39.8279 19.3344 39.8421 19.3703 39.8644 19.4014C39.8867 19.4324 39.9164 19.4578 39.9509 19.4753C39.9855 19.4929 40.0239 19.502 40.0629 19.502H43.8799C43.9189 19.502 43.9574 19.4928 43.9919 19.4753C44.0265 19.4577 44.0562 19.4323 44.0785 19.4012C44.1007 19.3701 44.1149 19.3343 44.1198 19.2967C44.1247 19.2591 44.1202 19.221 44.1066 19.1855L44.1068 19.1853ZM44.9885 21.9932H38.9545C38.9051 21.9932 38.857 22.0079 38.8164 22.0352C38.7759 22.0626 38.745 22.1013 38.7278 22.1463L37.5399 25.2546C37.5227 25.2995 37.4917 25.3383 37.4512 25.3657C37.4107 25.393 37.3625 25.4077 37.3131 25.4077H34.6978C34.6583 25.4077 34.6193 25.3983 34.5844 25.3803C34.5495 25.3623 34.5197 25.3362 34.4975 25.3044C34.4754 25.2726 34.4616 25.2361 34.4574 25.1979C34.4532 25.1597 34.4586 25.1211 34.4734 25.0855L40.4946 10.5221C40.5126 10.4786 40.5437 10.4414 40.5837 10.4152C40.6237 10.3889 40.6709 10.3749 40.7192 10.375H43.2235C43.3221 10.375 43.411 10.4332 43.4479 10.5221L49.469 25.0854C49.4838 25.121 49.4893 25.1596 49.4852 25.1978C49.481 25.236 49.4672 25.2727 49.445 25.3045C49.4229 25.3363 49.393 25.3624 49.3581 25.3804C49.3231 25.3985 49.2841 25.4079 49.2446 25.4079H46.6297C46.5803 25.4078 46.5321 25.3931 46.4916 25.3657C46.4511 25.3383 46.4202 25.2996 46.403 25.2546L45.2149 22.1463C45.1977 22.1013 45.1668 22.0626 45.1263 22.0352C45.0857 22.0079 45.0376 21.9932 44.9882 21.9932H44.9885ZM50.6944 15.486H52.9312C52.9954 15.486 53.0569 15.5107 53.1023 15.5548C53.1476 15.5988 53.1731 15.6585 53.1731 15.7208V25.1729C53.1731 25.2352 53.1476 25.2949 53.1023 25.3389C53.0569 25.383 52.9954 25.4077 52.9312 25.4077H50.6944C50.6302 25.4077 50.5687 25.383 50.5233 25.3389C50.478 25.2949 50.4525 25.2352 50.4525 25.1729V15.7207C50.4525 15.6584 50.478 15.5986 50.5233 15.5546C50.5687 15.5106 50.6302 15.4858 50.6944 15.4858V15.486ZM61.3311 17.7852C61.3311 17.8475 61.3056 17.9072 61.2603 17.9513C61.2149 17.9953 61.1534 18.02 61.0892 18.02H61.0215C59.9155 18.02 59.1042 18.2777 58.5882 18.7931C58.0719 19.3085 57.8142 20.1605 57.8142 21.3488V25.1729C57.8142 25.2352 57.7887 25.2949 57.7434 25.3389C57.698 25.383 57.6365 25.4077 57.5724 25.4077H55.3574C55.2933 25.4077 55.2317 25.383 55.1864 25.3389C55.141 25.2949 55.1155 25.2352 55.1155 25.1729V15.7207C55.1155 15.6584 55.141 15.5986 55.1864 15.5546C55.2317 15.5106 55.2933 15.4858 55.3574 15.4858H57.5501C57.6143 15.4858 57.6758 15.5106 57.7211 15.5546C57.7665 15.5986 57.792 15.6584 57.792 15.7207V17.5903H57.8363C58.1017 16.8172 58.522 16.2234 59.0973 15.8079C59.6722 15.3928 60.3801 15.1851 61.2205 15.1851H61.3311V17.785V17.7852ZM67.4473 17.6978C67.3832 17.6978 67.3217 17.7226 67.2763 17.7666C67.231 17.8107 67.2055 17.8704 67.2055 17.9327V21.8642C67.2055 22.2651 67.2861 22.5515 67.4486 22.7232C67.6107 22.8949 67.8909 22.9809 68.2891 22.9809H68.5118C68.5759 22.9809 68.6374 23.0056 68.6828 23.0497C68.7282 23.0937 68.7536 23.1535 68.7536 23.2157V25.1942C68.7536 25.2564 68.7282 25.3162 68.6828 25.3602C68.6374 25.4043 68.5759 25.429 68.5118 25.429H67.5591C66.5711 25.429 65.8118 25.1821 65.2809 24.6882C64.7499 24.1942 64.4845 23.4607 64.4845 22.487V17.9327C64.4845 17.8704 64.459 17.8107 64.4137 17.7666C64.3683 17.7226 64.3068 17.6978 64.2427 17.6978H62.8464C62.7822 17.6978 62.7207 17.6731 62.6753 17.6291C62.63 17.585 62.6045 17.5253 62.6045 17.463V15.7207C62.6045 15.6584 62.63 15.5986 62.6753 15.5546C62.7207 15.5106 62.7822 15.4858 62.8464 15.4858H64.2428C64.307 15.4858 64.3685 15.4611 64.4138 15.417C64.4592 15.373 64.4847 15.3133 64.4847 15.251V11.7477C64.4847 11.6854 64.5102 11.6257 64.5555 11.5816C64.6009 11.5376 64.6624 11.5128 64.7266 11.5128H66.9634C67.0276 11.5128 67.0891 11.5376 67.1345 11.5816C67.1798 11.6257 67.2053 11.6854 67.2053 11.7477V15.251C67.2053 15.3133 67.2308 15.373 67.2762 15.417C67.3215 15.4611 67.383 15.4858 67.4472 15.4858H69.0647C69.1288 15.4858 69.1904 15.5106 69.2357 15.5546C69.2811 15.5986 69.3066 15.6584 69.3066 15.7207V17.4632C69.3066 17.5254 69.2811 17.5852 69.2357 17.6292C69.1904 17.6733 69.1288 17.698 69.0647 17.698H67.4473V17.6978ZM77.6902 22.4655C78.1989 21.9501 78.4532 21.2772 78.4532 20.4467C78.4532 19.6166 78.1989 18.9434 77.6902 18.428C77.1814 17.9126 76.514 17.6549 75.6882 17.6549C74.8623 17.6549 74.1954 17.9126 73.6865 18.428C73.1779 18.9434 72.9234 19.6166 72.9234 20.4467C72.9234 21.2772 73.1779 21.9501 73.6865 22.4655C74.1954 22.9809 74.8623 23.2386 75.6882 23.2386C76.514 23.2386 77.1814 22.9809 77.6902 22.4655ZM72.5253 25.107C71.7732 24.6919 71.1795 24.0868 70.7448 23.2923C70.3095 22.4978 70.0922 21.5493 70.0922 20.4467C70.0922 19.3445 70.3095 18.3958 70.7448 17.6012C71.1795 16.8067 71.7732 16.2021 72.5253 15.7866C73.2774 15.3714 74.103 15.1638 75.0026 15.1638C75.7988 15.1638 76.4808 15.3141 77.0489 15.6147C77.6161 15.9153 78.0696 16.3378 78.409 16.8819H78.4532V15.7207C78.4532 15.6584 78.4787 15.5986 78.524 15.5546C78.5694 15.5106 78.6309 15.4858 78.6951 15.4858H80.9098C80.974 15.4858 81.0355 15.5106 81.0809 15.5546C81.1262 15.5986 81.1517 15.6584 81.1517 15.7207V25.1727C81.1517 25.235 81.1262 25.2947 81.0809 25.3388C81.0355 25.3828 80.974 25.4075 80.9098 25.4075H78.6951C78.6309 25.4075 78.5694 25.3828 78.524 25.3388C78.4787 25.2947 78.4532 25.235 78.4532 25.1727V24.0117H78.409C78.0696 24.556 77.6161 24.9781 77.0487 25.2787C76.4808 25.5793 75.799 25.7296 75.0026 25.7296C74.103 25.7296 73.2774 25.522 72.5253 25.107ZM90.3628 22.4655C90.8716 21.9501 91.1259 21.2772 91.1259 20.4467C91.1259 19.6166 90.8716 18.9434 90.3628 18.428C89.8543 17.9126 89.1868 17.6549 88.3611 17.6549C87.5352 17.6549 86.8681 17.9126 86.3593 18.428C85.8507 18.9434 85.5961 19.6166 85.5961 20.4467C85.5961 21.2772 85.8507 21.9501 86.3593 22.4655C86.8681 22.9809 87.5352 23.2386 88.3611 23.2386C89.1868 23.2386 89.8543 22.9809 90.3628 22.4655ZM87.0008 25.2787C86.433 24.9781 85.9794 24.556 85.6405 24.0117H85.5961V25.1727C85.5961 25.235 85.5706 25.2947 85.5253 25.3388C85.4799 25.3828 85.4184 25.4075 85.3542 25.4075H83.1174C83.0532 25.4075 82.9917 25.3828 82.9463 25.3388C82.901 25.2947 82.8755 25.235 82.8755 25.1727V10.6093C82.8755 10.5471 82.901 10.4873 82.9463 10.4433C82.9917 10.3993 83.0532 10.3745 83.1174 10.3745H85.3542C85.4184 10.3745 85.4799 10.3993 85.5253 10.4433C85.5706 10.4873 85.5961 10.5471 85.5961 10.6093V16.8817H85.6405C85.9794 16.3377 86.433 15.9153 87.0008 15.6147C87.5684 15.3139 88.2505 15.1636 89.0469 15.1636C89.9462 15.1636 90.7721 15.3712 91.5242 15.7864C92.2762 16.2019 92.8697 16.8066 93.3047 17.6009C93.7396 18.3959 93.9574 19.3447 93.9574 20.4468C93.9574 21.5495 93.7396 22.4978 93.3049 23.2924C92.8698 24.087 92.2764 24.6921 91.5243 25.107C90.7723 25.5222 89.9463 25.7299 89.047 25.7299C88.2506 25.7299 87.5685 25.5796 87.0009 25.2789L87.0008 25.2787ZM97.7262 25.4077H95.4893C95.4252 25.4077 95.3637 25.383 95.3183 25.3389C95.2729 25.2949 95.2475 25.2352 95.2475 25.1729V10.6098C95.2475 10.5475 95.2729 10.4878 95.3183 10.4438C95.3637 10.3997 95.4252 10.375 95.4893 10.375H97.7262C97.7903 10.375 97.8519 10.3997 97.8972 10.4438C97.9426 10.4878 97.9681 10.5475 97.9681 10.6098V25.1729C97.9681 25.2352 97.9426 25.2949 97.8972 25.3389C97.8519 25.383 97.7903 25.4077 97.7262 25.4077ZM103.003 17.7839C102.632 18.0648 102.381 18.4703 102.252 19.0007C102.216 19.1469 102.334 19.2872 102.488 19.2872H106.745C106.893 19.2872 107.009 19.1588 106.985 19.0173C106.9 18.5155 106.679 18.1155 106.321 17.8162C105.9 17.4655 105.351 17.2902 104.673 17.2902C103.994 17.2902 103.437 17.4547 103.003 17.7839ZM108.455 16.549C109.325 17.4727 109.76 18.7792 109.76 20.4683V20.7488C109.76 20.8111 109.735 20.8709 109.689 20.9149C109.644 20.9589 109.582 20.9837 109.518 20.9837H102.406C102.371 20.9838 102.336 20.9913 102.304 21.0059C102.272 21.0204 102.243 21.0416 102.22 21.0679C102.198 21.0943 102.181 21.1251 102.172 21.1583C102.163 21.1915 102.161 21.2263 102.167 21.2602C102.281 21.8876 102.566 22.3861 103.025 22.7555C103.548 23.1782 104.208 23.389 105.004 23.389C106.032 23.389 106.984 22.9995 107.859 22.2203C107.966 22.1251 108.135 22.1453 108.218 22.261L109.306 23.7765C109.34 23.8237 109.355 23.8813 109.348 23.9385C109.341 23.9957 109.313 24.0485 109.269 24.0868C108.735 24.5405 108.141 24.9233 107.504 25.2252C106.796 25.5614 105.963 25.7299 105.004 25.7299C103.899 25.7299 102.932 25.5113 102.107 25.0749C101.281 24.6384 100.639 24.0228 100.183 23.2279C99.7252 22.4334 99.4967 21.5136 99.4967 20.4683C99.4967 19.4234 99.718 18.5 100.16 17.698C100.603 16.8964 101.222 16.2736 102.018 15.8296C102.815 15.3861 103.744 15.1639 104.805 15.1639C106.368 15.1639 107.585 15.6258 108.455 16.549ZM53.4653 11.9916C53.4653 12.8774 52.7256 13.5955 51.8131 13.5955C50.9004 13.5955 50.1608 12.8774 50.1608 11.9914C50.1608 11.1055 50.9006 10.3873 51.8131 10.3873C52.7256 10.3873 53.4653 11.1055 53.4653 11.9914" fill="white"/>
<path d="M12.8483 6.13897L2.21216 10.4119C1.62069 10.6496 1.62682 11.4654 2.22199 11.6944L12.9024 15.8066C13.8408 16.1679 14.8859 16.1679 15.8243 15.8066L26.5049 11.6943C27.0999 11.4654 27.1064 10.6497 26.5146 10.4121L15.8788 6.13881C14.9085 5.74898 13.8184 5.74898 12.8481 6.13881" fill="#FCB400"/>
<path d="M15.311 18.0519V28.3248C15.311 28.8133 15.8185 29.148 16.2863 28.968L28.1876 24.4829C28.3203 24.4318 28.4342 24.3432 28.5144 24.2285C28.5946 24.1138 28.6375 23.9784 28.6375 23.8397V13.567C28.6375 13.0784 28.13 12.7438 27.6622 12.9239L15.7609 17.409C15.6282 17.4601 15.5144 17.5487 15.4342 17.6634C15.3539 17.7781 15.311 17.9135 15.311 18.0521" fill="#18BFFF"/>
<path d="M12.5318 18.5821L8.99978 20.2378L8.64116 20.4061L1.18524 23.8747C0.712776 24.096 0.109375 23.7616 0.109375 23.2519V13.6101C0.109375 13.4257 0.206771 13.2664 0.337384 13.1467C0.390967 13.0949 0.451758 13.0506 0.517985 13.0152C0.696006 12.9114 0.950137 12.8836 1.16621 12.9666L12.4725 17.3161C13.0472 17.5375 13.0923 18.3194 12.5318 18.5822" fill="#F82B60"/>
<path d="M12.5318 18.5821L8.99978 20.2378L0.337379 13.1465C0.390974 13.0948 0.451764 13.0505 0.517981 13.0152C0.696002 12.9114 0.950133 12.8836 1.16621 12.9666L12.4725 17.3161C13.0472 17.5375 13.0923 18.3194 12.5318 18.5822" fill="black" fill-opacity="0.25"/>
</g>
<defs>
<clipPath id="clip0_1_520">
<rect width="109.799" height="34.223" fill="white" transform="translate(0.109375 0.888428)"/>
</clipPath>
</defs>
</svg>
