<svg width="117" height="36" viewBox="0 0 117 36" fill="none" xmlns="http://www.w3.org/2000/svg">
<g clip-path="url(#clip0_1_508)">
<path d="M28.2522 24.1116L28.9755 23.9626C29.6137 23.7924 29.7839 23.7073 29.7839 22.4309V12.4106C29.7839 11.1342 29.5925 11.0278 28.9755 10.8789L28.2522 10.73V10.1343H39.7829L39.9956 14.3679H39.3361C38.8043 13.1978 38.4639 12.5808 38.1448 12.1128C37.464 11.1342 37.0172 11.0491 35.5493 11.0491C34.4643 11.0491 33.9324 11.1767 33.6133 11.2618V16.6868H34.1877C35.6769 16.6868 36.0173 16.5166 36.2726 16.0486C36.5705 15.5167 36.7407 15.1125 36.9321 14.4317H37.5704V19.9205H36.9321C36.7407 19.261 36.5705 18.8355 36.2726 18.2185C36.0173 17.6867 35.7408 17.5803 34.1877 17.5803H33.6133V21.665C33.6133 23.5584 33.6771 23.7712 35.7408 23.7712C37.4427 23.7712 37.7831 23.5584 38.4852 22.516C38.8681 21.9416 39.2723 21.048 39.8254 19.7078H40.5062L40.2084 24.7072H28.2734L28.2522 24.1116ZM42.2933 16.1337C41.804 14.9423 41.5699 14.6445 41.0381 14.4743L40.6339 14.3466V13.7935H46.9524V14.3466L46.378 14.4955C45.9312 14.6232 45.7184 14.8359 45.7184 15.3465C45.7184 15.6443 45.8248 16.006 45.995 16.474L47.7608 21.3246H47.8672L49.5691 16.474C49.7606 15.9635 49.8457 15.6018 49.8457 15.304C49.8457 14.8359 49.6329 14.6019 49.1862 14.4955L48.6118 14.3466V13.7935H52.505V14.3466L52.1008 14.4743C51.5476 14.6657 51.3136 14.9848 50.803 16.3677L47.548 24.7072H45.761L42.2933 16.1337ZM52.0157 19.1972C52.0157 15.538 54.7175 13.5169 57.5045 13.5169C60.3978 13.5169 62.2061 14.9636 62.2699 18.7717H55.3132C55.377 22.2181 56.6748 23.1542 58.8447 23.1542C60.1425 23.1542 61.1424 22.7713 61.9295 22.3671V23.0691C61.1849 23.8775 59.5894 24.9838 57.4832 24.9838C53.824 24.9413 52.0157 22.7713 52.0157 19.1972ZM55.3132 17.9633L58.9086 17.7718C58.9086 15.2401 58.5682 14.3041 57.313 14.3041C56.2493 14.3041 55.3983 15.3252 55.3132 17.9633ZM67.8013 15.1338C68.397 14.4955 69.6096 13.4531 71.0137 13.4531C71.9072 13.4531 72.6518 14.1764 72.6518 15.0912C72.6518 16.006 71.9285 16.7293 71.0137 16.7293C70.3542 16.7293 69.7585 16.3251 69.5245 15.7507C69.3969 15.5167 69.1203 15.4529 68.9288 15.4529C68.5459 15.4529 68.0991 15.7294 67.8225 15.9847V22.7925C67.8225 23.7712 67.9076 23.8775 68.5459 23.9839L69.2479 24.1328V24.7072H63.1847V24.1328L63.7379 23.9839C64.4399 23.7924 64.525 23.6861 64.525 22.7925V16.2613C64.525 15.3678 64.4186 15.304 63.823 14.8997L63.1209 14.4317V14.0062L67.546 13.4956L67.78 13.6658L67.7374 15.1125L67.8013 15.1338ZM73.2901 24.1328L73.8432 23.9839C74.5453 23.7924 74.6304 23.6861 74.6304 22.7925V16.2613C74.6304 15.3678 74.524 15.304 73.9283 14.8997L73.2262 14.4317V14.0062L77.6513 13.4956L77.8853 13.6446L77.8428 14.9848H77.9279C79.0342 14.1977 80.417 13.4956 81.9487 13.4956C83.7358 13.4956 84.6931 14.4104 84.6931 16.3039V22.7713C84.6931 23.6861 84.7782 23.7924 85.459 23.9626L86.0122 24.1116V24.686H80.1617V24.1116L80.6723 23.9839C81.3105 23.8137 81.3743 23.7499 81.3743 22.7713V17.1336C81.3743 15.8571 80.9063 15.4529 79.9277 15.4529C79.1831 15.4529 78.4385 15.6231 77.9704 15.7294V22.7925C77.9704 23.7924 78.0343 23.835 78.6725 24.0052L79.1831 24.1328V24.7072H73.3326V24.1328H73.2901ZM86.4164 19.261C86.4164 15.2401 89.2671 13.5169 92.0966 13.5169C95.1389 13.5169 97.7982 15.3465 97.7982 19.1546C97.7982 23.1755 94.99 24.9413 92.0966 24.9413C89.0544 24.9413 86.4164 23.1117 86.4164 19.261ZM94.2666 19.3674C94.2666 15.1338 93.4582 14.3253 92.0115 14.3253C90.6925 14.3253 89.9054 15.2827 89.9054 18.8993C89.9054 23.1968 90.6074 24.1328 92.1392 24.1328C93.3944 24.1328 94.2666 23.3882 94.2666 19.3674ZM99.6065 22.0479V15.0274H98.2875V14.5168C99.9256 13.8786 101.181 12.6659 101.776 10.9853H102.968V13.7935H105.755L105.478 15.0274H102.968V21.8352C102.968 22.8776 103.287 23.3031 104.329 23.3031C104.84 23.3031 105.457 23.1968 105.84 23.1117V23.7073C105.329 24.1754 104.287 24.9413 102.521 24.9413C100.628 24.9413 99.6065 24.1116 99.6065 22.0479ZM106.265 19.1972C106.265 15.538 108.967 13.5169 111.754 13.5169C114.647 13.5169 116.456 14.9636 116.52 18.7717H109.584C109.648 22.2181 110.946 23.1542 113.116 23.1542C114.413 23.1542 115.413 22.7713 116.201 22.3671V23.0691C115.456 23.8775 113.86 24.9838 111.754 24.9838C108.074 24.9413 106.265 22.7713 106.265 19.1972ZM109.563 17.9633L113.158 17.7718C113.158 15.2401 112.818 14.3041 111.563 14.3041C110.499 14.3041 109.648 15.3252 109.563 17.9633Z" fill="white"/>
<path d="M6.93569 11.7722C6.93569 12.0275 6.91441 12.453 6.65912 12.7295C6.38255 12.9848 5.95706 13.0061 5.70177 13.0061H2.97865C2.1915 13.0061 1.72346 13.0061 1.40434 13.0487C1.23415 13.0699 1.0214 13.155 0.915032 13.1976C0.872483 13.2189 0.872483 13.1976 0.893758 13.1763L7.10588 6.85781C7.12716 6.83654 7.14843 6.83654 7.12716 6.87909C7.08461 6.98546 6.99951 7.1982 6.97824 7.3684C6.93569 7.68751 6.93569 8.15555 6.93569 8.9427V11.7722ZM12.7223 30.8766C11.999 30.4086 11.6161 29.7916 11.4671 29.4087C11.3182 29.047 11.2331 28.6428 11.2331 28.2386C11.2331 26.4728 12.6798 25.0262 14.4668 25.0262C14.9987 25.0262 15.4242 25.4516 15.4242 25.9835C15.4242 26.3452 15.2327 26.643 14.9349 26.8132C14.8285 26.877 14.6796 26.9196 14.5732 26.9408C14.4668 26.9621 14.0626 27.0047 13.8711 27.1749C13.6584 27.3451 13.4882 27.6216 13.4882 27.9195C13.4882 28.2386 13.6158 28.5364 13.8286 28.7492C14.2115 29.1321 14.7221 29.3449 15.2752 29.3449C16.7219 29.3449 17.892 28.1748 17.892 26.7281C17.892 25.4304 17.0197 24.2815 15.8709 23.771C15.7007 23.6859 15.4242 23.622 15.1689 23.5582C14.8498 23.4944 14.5519 23.4518 14.5306 23.4518C13.6371 23.3455 11.4033 22.6434 11.2544 20.6649C11.2544 20.6649 10.5949 23.6433 9.27587 24.4517C9.14822 24.5156 8.97803 24.5794 8.78656 24.6219C8.59509 24.6645 8.38235 24.6858 8.31852 24.6858C6.16981 24.8134 3.89345 24.1326 2.31914 22.5158C2.31914 22.5158 1.25542 21.6435 0.702288 19.197C0.574642 18.6013 0.319349 17.5376 0.170428 16.5377C0.106605 16.176 0.0853308 15.8994 0.0640564 15.6441C0.0640564 14.6017 0.702288 13.8996 1.51072 13.7933C1.53199 13.7933 1.59581 13.7933 1.63836 13.7933C2.12767 13.7933 5.85069 13.7933 5.85069 13.7933C6.5953 13.7933 7.02078 13.6018 7.29735 13.3465C7.65902 13.0061 7.74411 12.5168 7.74411 11.9424C7.74411 11.9424 7.74411 8.07045 7.74411 7.58114C7.74411 7.55987 7.74411 7.47477 7.74411 7.4535C7.85049 6.66634 8.55254 6.00684 9.59499 6.00684C9.59499 6.00684 9.9141 6.00684 10.1056 6.00684C10.3183 6.00684 10.5736 6.02811 10.8076 6.04938C10.9778 6.07066 11.1267 6.11321 11.382 6.17703C12.6798 6.49615 12.9563 7.81516 12.9563 7.81516C12.9563 7.81516 15.4029 8.24065 16.6368 8.45339C17.8069 8.66614 20.7002 8.85761 21.2534 11.7722C22.5511 18.7077 21.7639 25.4304 21.7001 25.4304C20.7853 31.9829 15.3391 31.6638 15.3391 31.6638C14.169 31.6638 13.2967 31.2808 12.7223 30.8766ZM17.6154 16.9419C16.9134 16.8781 16.3177 17.1546 16.1049 17.6865C16.0624 17.7929 16.0199 17.9205 16.0411 17.9843C16.0624 18.0481 16.1049 18.0694 16.1475 18.0907C16.4028 18.2183 16.8283 18.2822 17.4452 18.346C18.0622 18.4098 18.4877 18.4524 18.7642 18.4098C18.8068 18.4098 18.8493 18.3885 18.8919 18.3247C18.9344 18.2609 18.9132 18.1332 18.9132 18.0269C18.8281 17.4312 18.3175 17.027 17.6154 16.9419Z" fill="#00A82D"/>
</g>
<defs>
<clipPath id="clip0_1_508">
<rect width="116.929" height="34.223" fill="white" transform="translate(0 0.888428)"/>
</clipPath>
</defs>
</svg>
