<svg width="91" height="36" viewBox="0 0 91 36" fill="none" xmlns="http://www.w3.org/2000/svg">
<g clip-path="url(#clip0_1_513)">
<path d="M19.3997 9.36131C19.3817 9.23514 19.2735 9.16305 19.1834 9.16305C19.0933 9.16305 17.3089 9.127 17.3089 9.127C17.3089 9.127 15.8129 7.68508 15.6687 7.52286C15.5245 7.37867 15.2361 7.41472 15.128 7.45076C15.128 7.45076 14.8396 7.54088 14.371 7.68508C14.2989 7.43274 14.1727 7.12633 14.0105 6.8019C13.4878 5.79255 12.6947 5.25183 11.7575 5.25183C11.6854 5.25183 11.6313 5.25183 11.5592 5.26985C11.5232 5.23381 11.5052 5.19776 11.4691 5.17973C11.0546 4.74716 10.5319 4.53087 9.90102 4.54889C8.69341 4.58494 7.4858 5.46812 6.49448 7.01819C5.80956 8.11765 5.28687 9.48748 5.12465 10.5509C3.7368 10.9835 2.7635 11.2899 2.72745 11.2899C2.02451 11.5062 2.00649 11.5242 1.91637 12.1911C1.88032 12.6958 0.0418701 26.9167 0.0418701 26.9167L15.4705 29.5843L22.1574 27.9261C22.1393 27.9261 19.4177 9.48748 19.3997 9.36131ZM13.5959 7.93741C13.2355 8.04556 12.8389 8.17173 12.4064 8.31592C12.4064 7.7031 12.3162 6.83795 12.0459 6.11698C12.9651 6.26118 13.4157 7.30657 13.5959 7.93741ZM11.5953 8.55023C10.7842 8.80257 9.90102 9.07293 9.01784 9.34329C9.27018 8.38801 9.7388 7.45076 10.3156 6.81992C10.5319 6.58561 10.8383 6.33327 11.1807 6.18908C11.5412 6.89202 11.6133 7.88334 11.5953 8.55023ZM9.93707 5.35997C10.2255 5.35997 10.4598 5.41405 10.658 5.55824C10.3336 5.72046 10.0092 5.97279 9.72078 6.29722C8.94575 7.12633 8.35095 8.40604 8.11664 9.6497C7.37766 9.88401 6.65669 10.1003 6.00783 10.2986C6.4404 8.33394 8.08059 5.41405 9.93707 5.35997Z" fill="#95BF47"/>
<path d="M19.1826 9.16317C19.0924 9.16317 17.3081 9.12712 17.3081 9.12712C17.3081 9.12712 15.8121 7.6852 15.6679 7.52298C15.6138 7.46891 15.5417 7.43286 15.4696 7.43286V29.5844L22.1565 27.9262C22.1565 27.9262 19.4349 9.4876 19.4169 9.36143C19.3808 9.23527 19.2727 9.16317 19.1826 9.16317Z" fill="#5E8E3E"/>
<path d="M11.7574 12.6056L10.9823 15.5075C10.9823 15.5075 10.1172 15.1109 9.0898 15.183C7.57578 15.2731 7.57578 16.2284 7.57578 16.4627C7.6659 17.7605 11.0724 18.0488 11.2707 21.0949C11.4149 23.4921 10.009 25.1323 7.95429 25.2585C5.50302 25.3846 4.15121 23.9427 4.15121 23.9427L4.67391 21.7257C4.67391 21.7257 6.04374 22.7531 7.12518 22.681C7.82812 22.645 8.09848 22.0502 8.06243 21.6536C7.95429 19.9594 5.17859 20.0675 4.99834 17.2738C4.85415 14.9307 6.3862 12.5695 9.77472 12.3532C11.0905 12.2631 11.7574 12.6056 11.7574 12.6056Z" fill="white"/>
<path d="M31.2053 18.788C30.4303 18.3735 30.0338 18.013 30.0338 17.5263C30.0338 16.9135 30.5925 16.517 31.4577 16.517C32.467 16.517 33.3682 16.9316 33.3682 16.9316L34.0712 14.7687C34.0712 14.7687 33.4223 14.264 31.5118 14.264C28.8442 14.264 26.9877 15.796 26.9877 17.9409C26.9877 19.1665 27.8529 20.0858 29.0064 20.7526C29.9437 21.2753 30.2681 21.6539 30.2681 22.2126C30.2681 22.7894 29.7995 23.258 28.9343 23.258C27.6546 23.258 26.429 22.5911 26.429 22.5911L25.672 24.754C25.672 24.754 26.7895 25.511 28.682 25.511C31.4216 25.511 33.4043 24.1592 33.4043 21.7259C33.3863 20.4102 32.3949 19.4729 31.2053 18.788Z" fill="white"/>
<path d="M42.128 14.2281C40.7762 14.2281 39.7128 14.877 38.9017 15.8503L38.8656 15.8322L40.0372 9.70407H36.9911L34.0172 25.3129H37.0632L38.0726 19.9778C38.4691 17.9591 39.5145 16.7154 40.4878 16.7154C41.1727 16.7154 41.4431 17.184 41.4431 17.8509C41.4431 18.2655 41.407 18.7882 41.3169 19.2027L40.1634 25.3129H43.2094L44.399 19.0045C44.5252 18.3376 44.6153 17.5445 44.6153 17.0038C44.6333 15.2735 43.7321 14.2281 42.128 14.2281Z" fill="white"/>
<path d="M51.5363 14.2278C47.8594 14.2278 45.4261 17.5443 45.4261 21.2392C45.4261 23.6003 46.8861 25.5109 49.6257 25.5109C53.2305 25.5109 55.6638 22.2846 55.6638 18.4995C55.6818 16.3186 54.4021 14.2278 51.5363 14.2278ZM50.0403 23.1858C48.9949 23.1858 48.5623 22.3026 48.5623 21.1851C48.5623 19.4368 49.4635 16.589 51.1217 16.589C52.2032 16.589 52.5636 17.5262 52.5636 18.4274C52.5636 20.3019 51.6444 23.1858 50.0403 23.1858Z" fill="white"/>
<path d="M63.4866 14.2278C61.4319 14.2278 60.2603 16.0483 60.2603 16.0483H60.2243L60.4045 14.4081H57.7009C57.5747 15.5075 57.3224 17.2018 57.0881 18.4635L54.9612 29.6384H58.0073L58.8544 25.1144H58.9265C58.9265 25.1144 59.5574 25.5109 60.7109 25.5109C64.2977 25.5109 66.6408 21.834 66.6408 18.121C66.6408 16.0663 65.7216 14.2278 63.4866 14.2278ZM60.5667 23.2218C59.7737 23.2218 59.305 22.7712 59.305 22.7712L59.8097 19.9234C60.1702 18.0129 61.1615 16.7512 62.2249 16.7512C63.1622 16.7512 63.4506 17.6164 63.4506 18.4274C63.4506 20.4101 62.279 23.2218 60.5667 23.2218Z" fill="white"/>
<path d="M71.0021 9.8482C70.0288 9.8482 69.2538 10.6232 69.2538 11.6146C69.2538 12.5158 69.8305 13.1466 70.6957 13.1466H70.7318C71.687 13.1466 72.4981 12.4977 72.5161 11.3802C72.5161 10.4971 71.9213 9.8482 71.0021 9.8482Z" fill="white"/>
<path d="M66.7306 25.2947H69.7767L71.8494 14.4803H68.7853L66.7306 25.2947Z" fill="white"/>
<path d="M79.6176 14.4624H77.4908L77.5989 13.9578C77.7792 12.9124 78.392 11.9931 79.4193 11.9931C79.9601 11.9931 80.3926 12.1554 80.3926 12.1554L80.9874 9.75815C80.9874 9.75815 80.4647 9.48779 79.3292 9.48779C78.2478 9.48779 77.1663 9.7942 76.3372 10.4971C75.2918 11.3803 74.8052 12.66 74.5709 13.9578L74.4808 14.4624H73.0569L72.6063 16.7695H74.0302L72.408 25.3129H75.4541L77.0762 16.7695H79.185L79.6176 14.4624Z" fill="white"/>
<path d="M86.9713 14.4803C86.9713 14.4803 85.0607 19.2927 84.2136 21.9242H84.1775C84.1235 21.0771 83.4205 14.4803 83.4205 14.4803H80.2122L82.0507 24.4115C82.0867 24.6278 82.0687 24.772 81.9786 24.9162C81.6181 25.6011 81.0233 26.268 80.3204 26.7546C79.7436 27.1692 79.0947 27.4396 78.5901 27.6198L79.4372 30.2153C80.05 30.0891 81.3478 29.5664 82.4292 28.5571C83.8171 27.2593 85.1148 25.2406 86.4305 22.501L90.1615 14.4803H86.9713Z" fill="white"/>
</g>
<defs>
<clipPath id="clip0_1_513">
<rect width="90.5484" height="34.223" fill="white" transform="translate(0.0418701 0.888428)"/>
</clipPath>
</defs>
</svg>
