<svg width="120" height="30" viewBox="0 0 120 30" fill="none" xmlns="http://www.w3.org/2000/svg">
<path fill-rule="evenodd" clip-rule="evenodd" d="M42.1913 19.3975C42.1913 19.9051 41.8191 20.3224 41.2897 20.3224C40.7747 20.3224 40.4025 19.9041 40.4025 19.3975V10.5784C40.4025 10.0708 40.7747 9.65344 41.3041 9.65344C41.8191 9.65344 42.1913 10.0717 42.1913 10.5784V19.3975Z" fill="white"/>
<path fill-rule="evenodd" clip-rule="evenodd" d="M53.7527 10.5784V18.6369C53.7527 19.7264 53.195 20.3386 52.3078 20.3386H52.2367C51.3927 20.3386 50.9914 19.8309 50.6341 19.0847L48.831 15.4285L47.2283 11.6535L47.2714 15.3097L47.2858 19.3832C47.2858 19.8908 46.9141 20.3081 46.3843 20.3081C45.8692 20.3081 45.4975 19.8899 45.4975 19.3832V11.3246C45.4975 10.3246 46.0553 9.62298 47.0287 9.62298H47.1001C48.0017 9.62298 48.3734 10.1306 48.7315 10.8769L50.5055 14.5035L52.0223 18.0257L51.9796 14.6528L51.9652 10.5793C51.9652 10.0717 52.3369 9.65436 52.8668 9.65436C53.3806 9.6534 53.7527 10.0708 53.7527 10.5784Z" fill="white"/>
<path fill-rule="evenodd" clip-rule="evenodd" d="M60.9222 19.3832C60.9222 19.8908 60.5505 20.3082 60.0207 20.3082C59.506 20.3082 59.1339 19.8899 59.1339 19.3832V11.3998H56.916C56.4584 11.3998 56.0867 11.0414 56.0867 10.5195C56.0867 10.0118 56.4584 9.6544 56.916 9.6544H63.1402C63.5977 9.6544 63.9698 10.0128 63.9698 10.5347C63.9698 11.0423 63.5977 11.3998 63.1402 11.3998H60.9222V19.3832Z" fill="white"/>
<path fill-rule="evenodd" clip-rule="evenodd" d="M66.3023 19.0848V10.8028C66.3023 10.0271 66.7171 9.59458 67.4758 9.62405H72.6271C73.0847 9.62405 73.4564 9.99668 73.4564 10.5043C73.4564 11.012 73.0847 11.3694 72.6271 11.3694H68.0763V13.9361H72.0973C72.5413 13.9361 72.8986 14.2793 72.8986 14.7718C72.8986 15.2642 72.5413 15.6073 72.0973 15.6073H68.0763V18.5619H72.6271C73.0847 18.5619 73.4564 18.9346 73.4564 19.4422C73.4564 19.9499 73.0847 20.3073 72.6271 20.3073H67.4326C66.6888 20.3082 66.2744 19.8757 66.3023 19.0848Z" fill="white"/>
<path fill-rule="evenodd" clip-rule="evenodd" d="M83.2019 20.3529C83.7026 20.0839 83.8603 19.5316 83.6168 19.099L81.8281 15.787C83.3022 15.4885 84.161 14.3544 84.161 12.8172C84.161 11.2059 83.1884 9.62405 80.8554 9.62405H77.4645C76.7062 9.59458 76.2914 10.0271 76.2914 10.8028V19.3985C76.2914 19.9052 76.6631 20.3234 77.1782 20.3234C77.708 20.3234 78.0797 19.9061 78.0797 19.3985L78.0654 16.1454H79.9539L81.943 19.9803C82.1854 20.4128 82.7152 20.6068 83.2019 20.3529ZM80.8974 14.4581H78.0642V11.3685H80.883C81.8273 11.3685 82.3571 11.9949 82.3571 12.9057C82.3571 13.8163 81.8564 14.4581 80.8974 14.4581Z" fill="white"/>
<path fill-rule="evenodd" clip-rule="evenodd" d="M87.8518 19.5173C86.779 18.5172 86.2923 16.9505 86.2923 14.9808C86.2923 12.9959 86.7646 11.4444 87.8239 10.4596C88.4819 9.86259 89.3686 9.45953 90.6571 9.45953C91.7874 9.45953 92.6606 9.72856 93.3186 10.3103C93.8911 10.7876 94.306 11.4597 94.5491 12.3999C94.6777 12.8923 94.3487 13.3847 93.8053 13.4893C93.2902 13.5786 92.8758 13.2354 92.7181 12.743C92.5464 12.2658 92.3168 11.9226 92.0453 11.683C91.6732 11.3399 91.2156 11.1906 90.6139 11.1906C89.9703 11.1906 89.4118 11.3846 88.9969 11.8171C88.396 12.4436 88.1381 13.5634 88.1381 14.9808C88.1381 16.3839 88.3816 17.5028 89.0113 18.1293C89.4261 18.5619 89.9703 18.7558 90.5996 18.7558C91.2576 18.7558 91.7583 18.5771 92.1739 18.174C92.3879 17.9649 92.5748 17.6968 92.7033 17.3831C92.8894 16.9201 93.2759 16.5769 93.7761 16.6967C94.2768 16.8165 94.5922 17.3232 94.4345 17.8156C94.1766 18.636 93.7334 19.2929 93.1325 19.7407C92.4745 20.2331 91.6588 20.4869 90.6287 20.4869C89.3123 20.4869 88.4819 20.0838 87.8518 19.5173Z" fill="white"/>
<path fill-rule="evenodd" clip-rule="evenodd" d="M100.988 9.45953C97.8828 9.45953 96.5664 11.6384 96.5664 14.9808C96.5664 18.4278 97.8692 20.5021 100.988 20.5021C104.05 20.5021 105.396 18.4278 105.396 14.9808C105.396 11.5785 104.065 9.45953 100.988 9.45953ZM100.974 11.2058C102.677 11.2058 103.564 12.4436 103.564 14.9808C103.564 17.5171 102.662 18.7558 100.974 18.7558C99.2711 18.7558 98.4122 17.5181 98.4122 14.9808C98.4122 12.4445 99.2994 11.2058 100.974 11.2058Z" fill="white"/>
<path fill-rule="evenodd" clip-rule="evenodd" d="M119.276 19.3831C119.276 19.8908 118.904 20.3081 118.374 20.3081C117.859 20.3081 117.487 19.8899 117.487 19.3831V15.3838L117.53 11.4891L116.285 15.4437L115.026 19.3385C114.812 20.0248 114.368 20.2939 113.81 20.2939C113.223 20.2939 112.794 20.0106 112.565 19.3242L111.277 15.4447L110.089 11.5499L110.132 15.3848V19.3841C110.132 19.8918 109.76 20.3091 109.23 20.3091C108.715 20.3091 108.344 19.8908 108.344 19.3841V11.4007C108.344 10.296 108.916 9.65437 109.917 9.65437C110.862 9.65437 111.392 10.1762 111.691 11.1317L113.008 15.2051L113.809 17.981L114.625 15.2051L115.941 11.1317C116.242 10.1762 116.757 9.65437 117.702 9.65437C118.703 9.65437 119.261 10.2808 119.261 11.4007L119.276 19.3831Z" fill="white"/>
<path d="M25.9602 16.5055C25.9602 16.7724 25.8579 17.0284 25.6759 17.2172C25.4939 17.4059 25.247 17.512 24.9896 17.512C24.7322 17.512 24.4854 17.4059 24.3033 17.2172C24.1213 17.0284 24.019 16.7724 24.019 16.5055V7.51369C24.019 7.24674 24.1213 6.99073 24.3033 6.80199C24.4854 6.61322 24.7322 6.50717 24.9896 6.50717C25.247 6.50717 25.4939 6.61322 25.6759 6.80199C25.8579 6.99073 25.9602 7.24674 25.9602 7.51369V16.5055ZM25.6233 22.7357C25.4949 22.8688 21.8854 25.9881 15.268 25.9881C8.65055 25.9881 5.06514 22.8854 4.91274 22.7523C4.81667 22.6684 4.73758 22.5656 4.67992 22.4498C4.62227 22.334 4.58725 22.2076 4.57679 22.0778C4.56637 21.948 4.58074 21.8173 4.61911 21.6933C4.65748 21.5692 4.71909 21.4542 4.80042 21.3549C4.96795 21.1539 5.20528 21.0298 5.46073 21.0095C5.71618 20.9892 5.969 21.0746 6.164 21.2468C6.22017 21.2884 9.44465 24.0001 15.26 24.0001C21.0753 24.0001 24.3239 21.2717 24.356 21.2468C24.5531 21.0761 24.8068 20.9919 25.0629 21.0121C25.3191 21.0323 25.5575 21.1553 25.7276 21.3549C25.8912 21.5529 25.9729 21.8099 25.9549 22.07C25.9368 22.3301 25.8206 22.5723 25.6313 22.744L25.6233 22.7357ZM4.56781 7.51369C4.5823 7.2459 4.69845 6.99496 4.89086 6.81569C5.08322 6.63646 5.33624 6.54347 5.59452 6.55708C5.83396 6.57118 6.05991 6.67674 6.22876 6.85338C6.39761 7.03001 6.49743 7.26522 6.50892 7.51369V16.4888C6.50892 16.7558 6.40667 17.0118 6.22465 17.2005C6.04266 17.3893 5.79579 17.4953 5.53839 17.4953C5.28098 17.4953 5.03411 17.3893 4.85209 17.2005C4.67006 17.0118 4.56781 16.7558 4.56781 16.4888V7.51369ZM9.43663 5.51735C9.45116 5.24956 9.56727 4.99862 9.75967 4.81935C9.95204 4.64012 10.2051 4.54713 10.4633 4.56075C10.7028 4.57484 10.9287 4.68041 11.0976 4.85704C11.2664 5.03368 11.3662 5.26889 11.3777 5.51735V18.8262C11.3777 19.0931 11.2755 19.3492 11.0935 19.5379C10.9115 19.7267 10.6646 19.8327 10.4072 19.8327C10.1498 19.8327 9.90293 19.7267 9.72091 19.5379C9.53888 19.3492 9.43663 19.0931 9.43663 18.8262V5.51735ZM14.3295 5.01827C14.3295 4.75132 14.4318 4.49531 14.6138 4.30657C14.7958 4.1178 15.0427 4.01175 15.3001 4.01175C15.5575 4.01175 15.8044 4.1178 15.9864 4.30657C16.1684 4.49531 16.2706 4.75132 16.2706 5.01827V19.4917C16.2706 19.7586 16.1684 20.0146 15.9864 20.2034C15.8044 20.3921 15.5575 20.4982 15.3001 20.4982C15.0427 20.4982 14.7958 20.3921 14.6138 20.2034C14.4318 20.0146 14.3295 19.7586 14.3295 19.4917V5.01827ZM19.1422 5.51735C19.1422 5.2504 19.2445 4.99439 19.4265 4.80566C19.6085 4.61688 19.8554 4.51084 20.1128 4.51084C20.3702 4.51084 20.6171 4.61688 20.799 4.80566C20.9811 4.99439 21.0833 5.2504 21.0833 5.51735V18.8262C21.0833 19.0931 20.9811 19.3492 20.799 19.5379C20.6171 19.7267 20.3702 19.8327 20.1128 19.8327C19.8554 19.8327 19.6085 19.7267 19.4265 19.5379C19.2445 19.3492 19.1422 19.0931 19.1422 18.8262V5.51735ZM26.2249 0.0274282H4.34322C3.86642 0.0241143 3.39369 0.118382 2.9521 0.304839C2.51047 0.491257 2.10869 0.766192 1.76967 1.11387C1.43065 1.4616 1.1611 1.8752 0.976484 2.33108C0.791823 2.78692 0.69572 3.2761 0.693604 3.77056V26.2293C0.69572 26.7237 0.791823 27.2129 0.976484 27.6688C1.1611 28.1246 1.43065 28.5382 1.76967 28.886C2.10869 29.2337 2.51047 29.5086 2.9521 29.695C3.39369 29.8815 3.86642 29.9756 4.34322 29.9724H26.2249C26.701 29.9756 27.1731 29.8817 27.6142 29.6958C28.0552 29.5099 28.4567 29.2357 28.7956 28.8889C29.1345 28.5421 29.4042 28.1294 29.5893 27.6746C29.7744 27.2196 29.8713 26.7314 29.8745 26.2376V3.77056C29.8724 3.27678 29.7765 2.78832 29.5924 2.333C29.4082 1.87767 29.1394 1.46443 28.8013 1.11683C28.4631 0.769267 28.0622 0.494171 27.6216 0.307235C27.1809 0.120298 26.709 0.0252322 26.2329 0.0274282" fill="white"/>
</svg>
