<svg width="116" height="22" viewBox="0 0 116 22" fill="none" xmlns="http://www.w3.org/2000/svg">
<path fill-rule="evenodd" clip-rule="evenodd" d="M19.0707 0.731615H1.93149C0.954642 0.731615 0.163086 1.52336 0.163086 2.50003V19.6393C0.163086 20.6161 0.954829 21.4076 1.93149 21.4076H19.0707C20.0476 21.4076 20.8391 20.6159 20.8391 19.6393V2.50003C20.8391 1.52316 20.0474 0.731615 19.0707 0.731615ZM11.0273 12.123C9.48163 12.123 8.77922 10.6293 8.77922 9.24481C8.77922 7.06477 9.96047 6.28857 11.0654 6.28857C12.4214 6.28857 13.3325 7.46784 13.3325 9.22446C13.3325 11.2281 12.1735 12.123 11.0273 12.123ZM16.2448 9.18601C16.2448 5.91864 14.3813 3.72366 11.6099 3.72366C9.99756 3.72366 9.06423 4.45496 8.61395 4.9596C8.55993 4.52445 8.27602 3.95995 7.16682 3.95995H4.75777V6.50454H5.74513C5.91251 6.50454 5.96653 6.55799 5.96653 6.72692V18.3465H8.8375V13.9854C8.8375 13.8678 8.83537 13.7577 8.83221 13.6593C9.28029 14.0742 10.1374 14.6472 11.4754 14.6472C14.2817 14.6472 16.2448 12.402 16.2448 9.18601Z" fill="white"/>
<path fill-rule="evenodd" clip-rule="evenodd" d="M28.4257 6.29932C28.9343 5.72982 29.9885 4.90451 31.8099 4.90451C34.9403 4.90451 37.0452 7.38162 37.0452 11.0689C37.0452 14.6984 34.8278 17.2322 31.6578 17.2322C30.1465 17.2322 29.1784 16.5854 28.6722 16.1173C28.6758 16.2283 28.6782 16.3526 28.6782 16.4853V21.407H25.4353V8.29383C25.4353 8.10315 25.3742 8.04287 25.1852 8.04287H24.0699V5.17117H26.7911C28.044 5.17117 28.3647 5.80824 28.4257 6.29932ZM31.1948 7.79909C29.9466 7.79909 28.6124 8.6751 28.6124 11.1353C28.6124 12.6978 29.4058 14.3834 31.1517 14.3834C32.4464 14.3834 33.7556 13.3735 33.7556 11.1124C33.7556 9.12998 32.7265 7.79909 31.1948 7.79909Z" fill="white"/>
<path d="M41.4002 13.8661V6.91739C41.4002 5.74338 40.839 5.17146 39.689 5.17146H36.7907V8.04311H37.9072C38.0951 8.04311 38.1561 8.10469 38.1561 8.29413V15.2187C38.1561 16.4108 38.6994 16.9646 39.8637 16.9646H42.7656V14.1183H41.6491C41.4696 14.1183 41.4002 14.0459 41.4002 13.8661Z" fill="white"/>
<path fill-rule="evenodd" clip-rule="evenodd" d="M46.4864 6.29932C46.9974 5.72982 48.0493 4.90451 49.873 4.90451C53.0022 4.90451 55.1059 7.38162 55.1059 11.0689C55.1059 14.6984 52.8909 17.2322 49.7197 17.2322C48.2096 17.2322 47.2379 16.5854 46.7341 16.1173C46.7377 16.2283 46.7413 16.3526 46.7413 16.4853V21.407H43.4959V8.29383C43.4959 8.10315 43.435 8.04287 43.2471 8.04287H42.1318V5.17117H44.8542C46.1071 5.17117 46.4266 5.80824 46.4864 6.29932ZM46.6731 11.1353C46.6731 12.6978 47.4701 14.3834 49.2112 14.3834C50.5096 14.3834 51.8175 13.3735 51.8175 11.1124C51.8175 9.12998 50.7884 7.79909 49.2567 7.79909C48.0074 7.79909 46.6731 8.6751 46.6731 11.1353Z" fill="white"/>
<path fill-rule="evenodd" clip-rule="evenodd" d="M55.2714 11.0695C55.2714 7.44011 57.715 4.90508 61.2092 4.90508C64.3253 4.90508 66.4195 7.15898 66.4195 10.5133C66.4195 10.8535 66.356 11.5497 66.35 11.5787L66.3321 11.7935H58.6412C58.9224 13.3621 60.1119 14.3623 61.7369 14.3623C63.3723 14.3623 64.6236 13.2515 64.7203 13.1657C64.7237 13.1627 64.7257 13.1609 64.7262 13.1605L64.9356 12.9602L66.3489 15.3239L66.2184 15.4543C66.1414 15.5294 64.3958 17.2327 61.5407 17.2327C57.9076 17.2327 55.2714 14.6398 55.2714 11.0695ZM61.2092 7.55351C59.9934 7.55351 59.1139 8.20991 58.7621 9.36705H63.07C62.9372 8.30282 62.1857 7.55351 61.2092 7.55351Z" fill="white"/>
<path fill-rule="evenodd" clip-rule="evenodd" d="M78.2158 2.47713V13.8661C78.2158 14.0459 78.2852 14.1183 78.4647 14.1183H79.5572V16.9646H76.7475C75.534 16.9646 75.2074 16.3203 75.1416 15.8111C74.6377 16.3951 73.6063 17.2324 71.8173 17.2324C68.6868 17.2324 66.5831 14.7565 66.5831 11.0692C66.5831 7.4398 68.7789 4.90477 71.9261 4.90477C73.5356 4.90477 74.4703 5.47791 74.9489 5.91348V3.85505C74.9489 3.66441 74.8878 3.60408 74.7 3.60408H73.5835V0.731201H76.4818C77.6473 0.731201 78.2158 1.30312 78.2158 2.47713ZM69.8918 11.0692C69.8918 13.0818 70.8898 14.3837 72.4323 14.3837C73.6804 14.3837 75.0159 13.5089 75.0159 11.0475C75.0159 9.42948 74.2297 7.79937 72.4766 7.79937C70.9305 7.79937 69.8918 9.11217 69.8918 11.0692Z" fill="white"/>
<path d="M86.7739 5.01565C85.424 5.01565 84.1819 5.80114 83.4448 7.05237V6.7833C83.4448 5.71426 82.8596 5.1713 81.7108 5.1713H78.9226V8.04296H80.0379C80.2258 8.04296 80.288 8.10331 80.288 8.29391V16.9645H83.531V12.2455C83.531 11.6241 83.6099 11.0257 83.7631 10.4718C84.2513 8.84416 85.5485 8.26497 86.598 8.26497C86.9702 8.26497 87.2406 8.30483 87.2454 8.306L87.5158 8.34702V5.0965L87.3184 5.06271C87.3088 5.0603 87.0336 5.01565 86.7739 5.01565Z" fill="white"/>
<path d="M92.1321 13.8662V6.91741C92.1321 5.7434 91.5732 5.17149 90.4231 5.17149H87.8015V8.04313H88.6391C88.8284 8.04313 88.8879 8.10471 88.8879 8.29415V15.2187C88.8879 16.4108 89.4326 16.9646 90.5995 16.9646H93.4986V14.1183H92.3808C92.2019 14.1183 92.1321 14.0459 92.1321 13.8662Z" fill="white"/>
<path d="M104.376 5.17149H102.645C101.634 5.17149 101.092 5.52502 100.771 6.39255L98.6568 12.3471C98.5838 12.5679 98.5153 12.8152 98.4565 13.0529C98.3958 12.8152 98.3228 12.5642 98.2427 12.3435L96.1279 6.39135C95.8036 5.51416 95.2795 5.17149 94.2554 5.17149H92.4146V8.04316H92.8921C93.146 8.04316 93.2274 8.13006 93.2875 8.28933L96.5602 16.9647H100.208L103.48 8.28933C103.54 8.13006 103.624 8.04316 103.878 8.04316H104.376V5.17149Z" fill="white"/>
<path fill-rule="evenodd" clip-rule="evenodd" d="M104.025 11.0695C104.025 7.44011 106.468 4.90508 109.961 4.90508C113.079 4.90508 115.174 7.15898 115.174 10.5133C115.174 10.8535 115.108 11.5497 115.105 11.5787L115.087 11.7935H107.393C107.675 13.3621 108.864 14.3623 110.49 14.3623C112.177 14.3623 113.466 13.1714 113.477 13.1605L113.693 12.9602L115.102 15.3239L114.971 15.4543C114.898 15.5266 113.15 17.2327 110.292 17.2327C106.659 17.2327 104.025 14.6398 104.025 11.0695ZM109.961 7.55351C108.746 7.55351 107.87 8.20991 107.514 9.36705H111.822C111.69 8.30282 110.939 7.55351 109.961 7.55351Z" fill="white"/>
<path d="M41.1788 0.731984H38.2877V3.80274H41.1788V0.731984Z" fill="white"/>
<path d="M91.912 0.731984H89.02V3.80274H91.912V0.731984Z" fill="white"/>
</svg>
