<svg width="111" height="29" viewBox="0 0 111 29" fill="none" xmlns="http://www.w3.org/2000/svg">
<g clip-path="url(#clip0_1_528)">
<mask id="mask0_1_528" style="mask-type:luminance" maskUnits="userSpaceOnUse" x="0" y="0" width="111" height="29">
<path d="M110.278 0.280273H0.520416V28.4819H110.278V0.280273Z" fill="white"/>
</mask>
<g mask="url(#mask0_1_528)">
<path d="M93.6878 24.6354C93.6878 25.5741 93.3014 26.4745 92.6131 27.1387C91.9248 27.803 90.9911 28.177 90.0163 28.1784H80.1533C80.1442 28.1784 80.1358 28.1749 80.1289 28.1686C80.1228 28.1624 80.119 28.1539 80.119 28.1451V24.9847C80.119 24.9758 80.1228 24.9674 80.1289 24.9611C80.1358 24.9549 80.1442 24.9514 80.1533 24.9514H88.5376C88.7312 24.9514 88.9233 24.9145 89.1016 24.8428C89.2807 24.771 89.4431 24.6658 89.5795 24.5334C89.716 24.401 89.8234 24.2438 89.8966 24.0709C89.9698 23.8981 90.0064 23.7131 90.0048 23.5265V21.4306C90.0048 21.4232 90.0018 21.4162 89.9965 21.411C89.9911 21.4058 89.9843 21.4029 89.9766 21.4029C89.969 21.4029 89.9614 21.4058 89.9561 21.411C89.9507 21.4162 89.9477 21.4232 89.9477 21.4306C89.453 22.2014 88.7563 22.8331 87.9286 23.2624C87.1001 23.6916 86.1687 23.9031 85.2289 23.8758C81.9087 23.8758 80.0847 21.5526 80.0847 18.004V8.38971H80.1129H83.7098H83.7387V17.5938C83.7387 19.7062 84.6648 20.8595 86.7365 20.8595C89.1131 20.8595 89.8493 19.3624 89.9934 18.0872V17.8821V8.38971C89.9987 8.38674 90.0048 8.38525 90.0109 8.38525C90.017 8.38525 90.0231 8.38674 90.0285 8.38971H93.6421C93.6474 8.38674 93.6528 8.38525 93.6589 8.38525C93.665 8.38525 93.6711 8.38674 93.6764 8.38971L93.6878 24.6354Z" fill="white"/>
<path d="M47.2039 16.8729H57.8092V15.1708C57.8092 10.6131 55.2715 8.12354 50.7371 8.12354C45.7365 8.12354 43.3484 10.8016 43.3484 15.0765V16.8729C43.3484 21.1977 45.7365 23.8758 50.7371 23.8758C55.1047 23.8758 57.395 21.7855 57.6884 18.6583V18.0761H53.9538L53.8963 18.8025C53.8837 18.9665 53.8509 19.1284 53.7984 19.2849C53.4992 20.1553 52.5612 20.8429 50.7716 20.8429C48.1419 20.8429 47.1636 19.3902 47.1636 17.2278V16.9228C47.1633 16.9113 47.1672 16.9 47.1745 16.891C47.1819 16.8819 47.1922 16.8755 47.2039 16.8729ZM50.6565 11.1565C53.0619 11.1565 54.0286 12.3596 54.0229 14.2615C54.0216 14.2728 54.0163 14.2834 54.008 14.2915C53.9996 14.2995 53.9886 14.3046 53.9769 14.3058H47.2384C47.2319 14.3059 47.2254 14.3045 47.2194 14.302C47.2133 14.2994 47.208 14.2956 47.2037 14.2909C47.1993 14.2862 47.196 14.2806 47.1941 14.2746C47.1922 14.2685 47.1915 14.2621 47.1924 14.2559C47.3535 12.404 48.3547 11.1565 50.6565 11.1565Z" fill="white"/>
<path d="M63.0519 3.8208H59.369V23.6317H63.0519V3.8208Z" fill="white"/>
<path d="M68.4429 8.36196H64.7888V23.6318H68.4429V14.5165C68.4429 13.1525 68.9781 11.1343 71.7344 11.1343C73.8059 11.1343 74.7324 12.282 74.7324 14.4V23.6318H78.3921V13.9953C78.3921 10.4523 76.5623 8.12358 73.2478 8.12358C72.3004 8.09991 71.3631 8.3158 70.5292 8.74966C69.6953 9.18352 68.9938 9.82021 68.4947 10.5964C68.4947 10.6038 68.4916 10.6108 68.4862 10.616C68.4809 10.6212 68.4736 10.6242 68.4659 10.6242C68.4582 10.6242 68.4509 10.6212 68.4456 10.616C68.4402 10.6108 68.4371 10.6038 68.4371 10.5964L68.4429 8.36196Z" fill="white"/>
<path d="M100.42 15.7085C100.43 15.7235 100.435 15.7408 100.435 15.7585C100.435 15.7761 100.43 15.7934 100.42 15.8084L95.0458 23.6318H99.074L102.527 18.5418C102.531 18.5349 102.537 18.5292 102.544 18.5251C102.55 18.5211 102.559 18.519 102.567 18.519C102.575 18.519 102.583 18.5211 102.59 18.5251C102.597 18.5292 102.603 18.5349 102.607 18.5418L106.031 23.6318H110.278L104.926 15.8194C104.918 15.8051 104.913 15.7888 104.913 15.7723C104.913 15.7557 104.918 15.7395 104.926 15.7252L110.076 8.36194H105.899L102.843 12.9917C102.839 12.9974 102.833 13.0021 102.826 13.0053C102.82 13.0085 102.813 13.0102 102.806 13.0102C102.798 13.0102 102.791 13.0085 102.784 13.0053C102.778 13.0021 102.772 12.9974 102.768 12.9917L99.7303 8.35645H95.2935L100.42 15.7085Z" fill="white"/>
<path d="M42.1237 20.4768H37.3188C36.9345 20.4769 36.5656 20.3317 36.2912 20.0726C36.0168 19.8133 35.8589 19.4608 35.8513 19.0906V12.9306C35.8513 12.5556 36.006 12.196 36.2812 11.9308C36.5563 11.6656 36.9296 11.5167 37.3188 11.5167H42.1237V8.35626H37.3188C36.9296 8.35626 36.5563 8.20731 36.2812 7.94221C36.006 7.67702 35.8513 7.3174 35.8513 6.94241V3.8208H32.1858V6.94241C32.1858 7.12856 32.1477 7.31286 32.0735 7.48477C31.9995 7.65666 31.8908 7.81278 31.754 7.94414C31.6171 8.0755 31.4547 8.17955 31.276 8.25028C31.0973 8.321 30.9058 8.357 30.7127 8.35626H28.5203V11.5167H30.7242C31.1134 11.5167 31.4867 11.6656 31.7618 11.9308C32.037 12.196 32.1916 12.5556 32.1916 12.9306V20.0887C32.2037 21.0333 32.6021 21.9353 33.3002 22.5986C33.9984 23.262 34.9399 23.6332 35.9204 23.6317H42.1237V20.4768Z" fill="white"/>
<path d="M26.3152 21.791C26.755 21.0198 26.8802 20.1181 26.6662 19.2627C26.6049 19.0262 26.5201 18.7959 26.413 18.5751C26.3793 18.5027 26.3408 18.4323 26.2979 18.3644L22.8108 12.0159H19.2431L22.8913 18.6694C23.0059 18.8628 23.0662 19.0816 23.0662 19.3042C23.0662 19.5269 23.0059 19.7457 22.8913 19.939C22.7797 20.1198 22.6214 20.2694 22.4318 20.3734C22.2422 20.4774 22.0277 20.5322 21.8095 20.5323H17.6491C17.6031 21.1518 17.4034 21.7515 17.067 22.2812C16.7306 22.8109 16.2671 23.255 15.7156 23.5763H23.3632C23.8738 23.5437 24.3707 23.4035 24.8191 23.1661C25.4519 22.8657 25.974 22.3858 26.3152 21.791Z" fill="white"/>
<path d="M6.75565 7.86292H10.3234L12.1015 4.67475C12.2519 4.3996 12.4775 4.16926 12.7538 4.00857C13.0301 3.84789 13.3468 3.76297 13.6696 3.76297C13.9924 3.76297 14.309 3.84789 14.5853 4.00857C14.8617 4.16926 15.0872 4.3996 15.2376 4.67475L16.964 7.86292H20.5317L17.9997 3.24978C17.5799 2.4876 16.9527 1.84994 16.1852 1.40524C15.4178 0.960543 14.5392 0.725586 13.6436 0.725586C12.7481 0.725586 11.8695 0.960543 11.1021 1.40524C10.3347 1.84994 9.70738 2.4876 9.28756 3.24978L6.75565 7.86292Z" fill="white"/>
<path d="M9.63417 11.4615C9.6716 10.8446 9.86329 10.2456 10.1929 9.71557C10.5226 9.18553 10.9805 8.74017 11.5274 8.41748H4.6221V11.4615H9.63417Z" fill="white"/>
<path d="M10.2029 11.6833V20.0002H11.8256C12.1641 19.9966 12.4919 19.8861 12.759 19.6858C13.0261 19.4856 13.2177 19.2065 13.3045 18.8913C13.3394 18.7703 13.3568 18.6453 13.3563 18.5198V13.5296C13.3578 12.9879 13.581 12.4686 13.9775 12.0845C14.3739 11.7004 14.9117 11.4825 15.4739 11.4781H22.6957V8.41748H13.5865C12.6885 8.41896 11.8279 8.76369 11.1936 9.37597C10.5592 9.98831 10.2029 10.8181 10.2029 11.6833Z" fill="white"/>
<path d="M0.875272 18.5751C0.768206 18.7959 0.683418 19.0262 0.622078 19.2626C0.408311 20.1199 0.533444 21.0232 0.973097 21.7965C1.31525 22.3893 1.83729 22.8671 2.46924 23.166C2.91762 23.4036 3.41455 23.5436 3.9251 23.5763H13.6443C14.56 23.5763 15.4382 23.2258 16.0857 22.6019C16.7331 21.9781 17.0969 21.1319 17.0969 20.2496V12.0103H15.4512C15.0466 12.0203 14.6619 12.1815 14.3784 12.4598C14.0949 12.7382 13.9349 13.1118 13.932 13.5017V18.4919C13.9305 19.0336 13.7061 19.5526 13.308 19.9351C12.91 20.3176 12.3708 20.5323 11.8086 20.5323H5.50757C5.28937 20.5321 5.07496 20.4774 4.88532 20.3734C4.69569 20.2694 4.53733 20.1197 4.42573 19.9391C4.31124 19.7446 4.25104 19.525 4.25104 19.3014C4.25104 19.0779 4.31124 18.8582 4.42573 18.6638L8.07403 12.0103H4.47753L0.99036 18.3588C0.950079 18.4364 0.909798 18.503 0.875272 18.5751Z" fill="white"/>
</g>
</g>
<defs>
<clipPath id="clip0_1_528">
<rect width="109.758" height="28.2016" fill="white" transform="translate(0.520386 0.280273)"/>
</clipPath>
</defs>
</svg>
