<svg width="24" height="24" viewBox="0 0 24 24" fill="none" xmlns="http://www.w3.org/2000/svg">
<path d="M19.6079 6.99482C19.5317 6.69695 19.3162 6.47221 19.0694 6.40288C18.6309 6.28062 16.502 6 12.002 6C7.50195 6 5.37349 6.28073 4.93322 6.40323C4.68873 6.47123 4.47327 6.69593 4.39607 6.99482C4.28727 7.41923 4.00195 9.19595 4.00195 12C4.00195 14.804 4.28727 16.5808 4.39637 17.0064C4.47223 17.3031 4.68773 17.5278 4.93348 17.5968C5.37349 17.7193 7.50195 18 12.002 18C16.502 18 18.6309 17.7194 19.0707 17.5968C19.3152 17.5288 19.5307 17.3041 19.6079 17.0052C19.7167 16.5808 20.002 14.8 20.002 12C20.002 9.2 19.7167 7.41923 19.6079 6.99482ZM21.5452 6.49818C22.002 8.28 22.002 12 22.002 12C22.002 12 22.002 15.72 21.5452 17.5018C21.2907 18.4873 20.548 19.2618 19.6066 19.5236C17.8981 20 12.002 20 12.002 20C12.002 20 6.10934 20 4.39734 19.5236C3.45243 19.2582 2.70976 18.4836 2.45871 17.5018C2.00195 15.72 2.00195 12 2.00195 12C2.00195 12 2.00195 8.28 2.45871 6.49818C2.71324 5.51273 3.45592 4.73818 4.39734 4.47636C6.10934 4 12.002 4 12.002 4C12.002 4 17.8981 4 19.6066 4.47636C20.5515 4.74182 21.2942 5.51636 21.5452 6.49818ZM10.002 15.5V8.5L16.002 12L10.002 15.5Z" fill="white"/>
</svg>
